<svg version="1.1" xmlns="http://www.w3.org/2000/svg" xmlns:xlink="http://www.w3.org/1999/xlink" viewBox="0 0 172 172"><g fill="none" fill-rule="nonzero" stroke="none" stroke-width="1" stroke-linecap="butt" stroke-linejoin="miter" stroke-miterlimit="10" stroke-dasharray="" stroke-dashoffset="0" font-family="none" font-weight="none" font-size="none" text-anchor="none" style="mix-blend-mode: normal"><path d="M0,172v-172h172v172z" fill="none"></path><g><path d="M152.56916,97.74932c0.516,-1.05952 0.97352,-2.17408 1.36912,-3.34196c4.52876,-13.3644 -2.32028,-29.37416 -16.74076,-33.239c-1.55832,-19.58048 -15.31832,-33.01196 -30.85852,-35.303c-17.78652,-2.623 -34.08008,8.67568 -39.50152,26.6342c-6.53428,-2.31512 -12.90172,-2.03304 -18.9028,1.47404c-2.72276,1.25904 -5.21332,3.11664 -7.4476,5.56076c-3.28004,3.58792 -5.41284,8.11668 -6.28144,12.8914c-1.28656,0.20296 -2.55076,0.40592 -3.74272,0.83248c-6.9488,2.49228 -11.33308,7.62132 -12.53536,15.34756c-0.7482,4.81084 0.76196,9.60964 1.60476,11.54808c3.3282,7.6626 11.04584,12.0056 18.88732,10.85664c0.39044,-0.05676 0.95804,0.11868 1.29344,0.40076c0.41452,12.2464 6.36056,23.07724 15.28048,29.26408c14.31212,9.92784 32.72644,6.86968 44.34332,-6.74412c4.97768,5.0912 10.90136,7.56456 17.86048,6.66672c6.91956,-0.89268 12.29284,-4.71108 16.21272,-10.92028c1.81116,0.48676 3.52772,1.18852 5.30276,1.38288c6.95224,0.76024 12.59728,-2.0038 16.73904,-8.256c1.58584,-2.39252 3.08396,-5.49368 3.08396,-10.92888c0.00172,-5.60032 -2.22224,-10.70528 -5.96668,-14.12636z" fill="#a2dbfa"></path><path d="M31.59468,84.04952h-17.25332c-0.47472,0 -0.86,-0.38528 -0.86,-0.86c0,-0.47472 0.38528,-0.86 0.86,-0.86h17.25332c0.47472,0 0.86,0.38528 0.86,0.86c0,0.47472 -0.38528,0.86 -0.86,0.86zM36.55,84.04952h-2.48712c-0.47472,0 -0.86,-0.38528 -0.86,-0.86c0,-0.47472 0.38528,-0.86 0.86,-0.86h2.48712c0.47472,0 0.86,0.38528 0.86,0.86c0,0.47472 -0.38528,0.86 -0.86,0.86zM43.52288,84.04952h-4.37912c-0.47472,0 -0.86,-0.38528 -0.86,-0.86c0,-0.47472 0.38528,-0.86 0.86,-0.86h4.37912c0.47472,0 0.86,0.38528 0.86,0.86c0,0.47472 -0.38356,0.86 -0.86,0.86zM43.52288,87.25732h-16.53952c-0.47472,0 -0.86,-0.38528 -0.86,-0.86c0,-0.47472 0.38528,-0.86 0.86,-0.86h16.53952c0.47472,0 0.86,0.38528 0.86,0.86c0,0.47472 -0.38356,0.86 -0.86,0.86zM24.00432,87.25732h-0.9976c-0.47472,0 -0.86,-0.38528 -0.86,-0.86c0,-0.47472 0.38528,-0.86 0.86,-0.86h0.9976c0.47472,0 0.86,0.38528 0.86,0.86c0,0.47472 -0.38528,0.86 -0.86,0.86zM19.9176,87.25732h-2.50604c-0.47472,0 -0.86,-0.38528 -0.86,-0.86c0,-0.47472 0.38528,-0.86 0.86,-0.86h2.50604c0.47472,0 0.86,0.38528 0.86,0.86c0,0.47472 -0.38528,0.86 -0.86,0.86zM35.6298,80.84344h-8.64644c-0.47472,0 -0.86,-0.38528 -0.86,-0.86c0,-0.47472 0.38528,-0.86 0.86,-0.86h8.64644c0.47472,0 0.86,0.38528 0.86,0.86c0,0.47472 -0.38356,0.86 -0.86,0.86zM35.6298,77.63564h-2.16204c-0.47472,0 -0.86,-0.38528 -0.86,-0.86c0,-0.47472 0.38528,-0.86 0.86,-0.86h2.16204c0.47472,0 0.86,0.38528 0.86,0.86c0,0.47472 -0.38356,0.86 -0.86,0.86zM30.00712,90.46512h-3.02376c-0.47472,0 -0.86,-0.38528 -0.86,-0.86c0,-0.47472 0.38528,-0.86 0.86,-0.86h3.02376c0.47472,0 0.86,0.38528 0.86,0.86c0,0.47472 -0.38356,0.86 -0.86,0.86z" fill="#ffffff"></path><path d="M52.98632,132.78916c0,0 20.10852,0 20.23064,0c4.644,0 8.40736,-3.76508 8.40736,-8.40908c0,-4.0506 -2.86552,-7.43212 -6.68048,-8.22848c0.04472,-0.35432 0.07396,-0.7138 0.07396,-1.08016c0,-4.80912 -3.89924,-8.70836 -8.70836,-8.70836c-2.83972,0 -5.35436,1.36568 -6.94364,3.46924c-0.40592,-5.35436 -5.18924,-9.48408 -10.7844,-8.79952c-4.09188,0.50052 -7.47512,3.6636 -8.22848,7.71592c-0.2408,1.30032 -0.21672,2.56108 0.02408,3.74444c-1.09736,-1.18164 -2.65912,-1.92468 -4.39804,-1.92468c-3.182,0 -5.78092,2.47852 -5.9856,5.60892c-1.4448,-0.31992 -3.01688,-0.29928 -4.67324,0.32336c-3.1648,1.18852 -5.418,4.16756 -5.55044,7.54564c-0.18748,4.79708 3.6464,8.7462 8.4022,8.7462c0.3612,0 1.63056,0 1.92296,0h17.46316" fill="#fdfcef"></path><path d="M73.21696,133.64916h-20.22892c-0.47472,0 -0.86,-0.38528 -0.86,-0.86c0,-0.47472 0.38528,-0.86 0.86,-0.86h20.23064c4.1624,0 7.54908,-3.38668 7.54908,-7.54908c0,-3.55524 -2.52152,-6.66156 -5.99592,-7.3874c-0.4386,-0.09116 -0.73272,-0.50224 -0.67768,-0.946c0.03956,-0.31992 0.06708,-0.645 0.06708,-0.97524c0,-4.32752 -3.52084,-7.84836 -7.84836,-7.84836c-2.47336,0 -4.7558,1.14036 -6.25736,3.12696c-0.215,0.28552 -0.58136,0.41108 -0.9288,0.30616c-0.34228,-0.10148 -0.58824,-0.40248 -0.61404,-0.75852c-0.17888,-2.36844 -1.33988,-4.59412 -3.18372,-6.10428c-1.86104,-1.52564 -4.21744,-2.20332 -6.6392,-1.90748c-3.72552,0.4558 -6.80432,3.34196 -7.48716,7.01932c-0.21328,1.14724 -0.2064,2.2962 0.02236,3.41592c0.07568,0.3784 -0.10664,0.76024 -0.45064,0.93568c-0.34228,0.17716 -0.76024,0.1032 -1.0234,-0.1806c-0.98728,-1.06296 -2.32544,-1.64948 -3.7668,-1.64948c-2.69868,0 -4.95016,2.11044 -5.12732,4.80396c-0.0172,0.25112 -0.14104,0.4816 -0.34228,0.63124c-0.20124,0.14964 -0.45924,0.20468 -0.70176,0.15136c-1.44824,-0.31992 -2.81564,-0.22532 -4.18476,0.28724c-2.87068,1.07672 -4.8762,3.79948 -4.99316,6.77336c-0.08084,2.07604 0.66564,4.042 2.10184,5.53496c1.4362,1.49296 3.36776,2.31684 5.44036,2.31684h19.38096c0.47472,0 0.86,0.38528 0.86,0.86c0,0.47472 -0.38528,0.86 -0.86,0.86h-19.38268c-2.54388,0 -4.91576,-1.00964 -6.68048,-2.84488c-1.763,-1.83352 -2.67976,-4.24668 -2.58,-6.794c0.14276,-3.65672 2.5972,-6.99868 6.106,-8.31792c1.376,-0.516 2.79672,-0.69144 4.24496,-0.51256c0.64844,-3.13556 3.43656,-5.47304 6.7166,-5.47304c1.1782,0 2.32888,0.30788 3.34368,0.87548c0,-0.6622 0.0602,-1.32784 0.18232,-1.99348c0.82044,-4.40664 4.50812,-7.86556 8.9698,-8.41252c2.88788,-0.35776 5.70868,0.45752 7.9378,2.28416c1.72688,1.41556 2.95152,3.35572 3.50536,5.49196c1.74064,-1.57552 3.98868,-2.451 6.38808,-2.451c5.27524,0 9.56836,4.29312 9.56836,9.56836c0,0.14276 -0.00344,0.28552 -0.01204,0.42828c3.87688,1.15756 6.61856,4.77644 6.61856,8.88208c0.00172,5.11528 -4.15552,9.27252 -9.26736,9.27252z" fill="#472b29"></path><path d="M48.11356,114.26648c-3.10976,-0.20468 -5.7878,1.9436 -5.97872,4.79708c-0.02408,0.35432 -0.0086,0.70348 0.043,1.04232c-0.60028,-0.67768 -1.4878,-1.13692 -2.50776,-1.204c-1.8662,-0.12212 -3.47784,1.1094 -3.71176,2.7864c-0.33884,-0.09288 -0.69316,-0.1548 -1.05952,-0.17888c-2.72104,-0.17888 -5.06368,1.70108 -5.23224,4.19852" fill="#fdfcef"></path><path d="M29.66828,126.13792c-0.01032,0 -0.02064,0 -0.02924,0c-0.23736,-0.01548 -0.41624,-0.22016 -0.40076,-0.45752c0.18404,-2.72964 2.73136,-4.7902 5.68976,-4.59928c0.23392,0.01548 0.46784,0.04644 0.70348,0.09116c0.46956,-1.66496 2.1672,-2.8208 4.0678,-2.69696c0.731,0.04816 1.41728,0.27692 2.00208,0.65704c0,-0.03268 0.00344,-0.06364 0.00516,-0.0946c0.2064,-3.08568 3.06848,-5.42488 6.43796,-5.19784c0.23736,0.01548 0.41624,0.22016 0.40076,0.45752c-0.01548,0.23736 -0.22188,0.42656 -0.45752,0.40076c-2.86552,-0.19608 -5.34748,1.78364 -5.5212,4.39804c-0.02064,0.31648 -0.00688,0.6364 0.03956,0.94944c0.02924,0.18748 -0.07052,0.37324 -0.24252,0.45408c-0.172,0.08084 -0.37668,0.03784 -0.50396,-0.10492c-0.54524,-0.61576 -1.35364,-1.00276 -2.21536,-1.05952c-1.61164,-0.10492 -3.053,0.9546 -3.25596,2.4166c-0.0172,0.12212 -0.086,0.23048 -0.1892,0.29928c-0.1032,0.0688 -0.23048,0.08772 -0.34916,0.05676c-0.32508,-0.08772 -0.65532,-0.14448 -0.97696,-0.16512c-2.46648,-0.1634 -4.62164,1.54112 -4.77472,3.79776c-0.0172,0.2236 -0.2064,0.39732 -0.43,0.39732z" fill="#472b29"></path><path d="M76.62256,117.13716c-2.92228,-1.37772 -6.30208,-0.40248 -7.54908,2.17924c-0.1548,0.31992 -0.27004,0.65188 -0.34572,0.98728" fill="#fdfcef"></path><path d="M68.72776,120.73196c-0.03096,0 -0.06364,-0.00344 -0.09632,-0.01032c-0.2322,-0.05332 -0.37668,-0.2838 -0.32336,-0.51428c0.08428,-0.37152 0.21156,-0.73444 0.3784,-1.07672c1.34676,-2.78812 4.98972,-3.85796 8.1184,-2.38048c0.215,0.10148 0.30788,0.35776 0.2064,0.57276c-0.10148,0.215 -0.35948,0.30444 -0.57276,0.2064c-2.71072,-1.27796 -5.83596,-0.38872 -6.97804,1.97628c-0.1376,0.28552 -0.24424,0.5848 -0.31476,0.8944c-0.04472,0.1978 -0.22188,0.33196 -0.41796,0.33196z" fill="#472b29"></path><path d="M109.779,128.61128h-47.558c-9.46,0 -17.2,-7.74 -17.2,-17.2v-47.55628c0,-9.46 7.74,-17.2 17.2,-17.2h47.55628c9.46,0 17.2,7.74 17.2,17.2v47.55628c0.00172,9.46 -7.73828,17.2 -17.19828,17.2z" fill="#ee3e54"></path><path d="M109.779,129.81528h-47.558c-10.148,0 -18.404,-8.256 -18.404,-18.404v-47.55628c0,-10.148 8.256,-18.404 18.404,-18.404h47.55628c10.148,0 18.404,8.256 18.404,18.404v47.55628c0.00172,10.148 -8.25428,18.404 -18.40228,18.404zM62.221,47.859c-8.82016,0 -15.996,7.17584 -15.996,15.996v47.55628c0,8.82016 7.17584,15.996 15.996,15.996h47.55628c8.82016,0 15.996,-7.17584 15.996,-15.996v-47.55628c0,-8.82016 -7.17584,-15.996 -15.996,-15.996z" fill="#472b29"></path><path d="M107.67716,123.4014h-43.35432c-7.77096,0 -14.09196,-6.321 -14.09196,-14.09196v-43.35432c0,-7.77096 6.321,-14.09196 14.09196,-14.09196h43.7912c0.35604,0 0.645,0.28896 0.645,0.645c0,0.35604 -0.28896,0.645 -0.645,0.645h-43.7912c-7.05888,0 -12.80196,5.74308 -12.80196,12.80196v43.35432c0,7.05888 5.74308,12.80196 12.80196,12.80196h43.3526c7.05888,0 12.80196,-5.74308 12.80196,-12.80196v-24.2778c0,-0.35604 0.28896,-0.645 0.645,-0.645c0.35604,0 0.645,0.28896 0.645,0.645v24.2778c0.00172,7.77096 -6.31928,14.09196 -14.09024,14.09196zM121.12412,81.77396c-0.35604,0 -0.645,-0.28896 -0.645,-0.645v-5.203c0,-0.35604 0.28896,-0.645 0.645,-0.645c0.35604,0 0.645,0.28896 0.645,0.645v5.203c0,0.35604 -0.28896,0.645 -0.645,0.645zM121.12412,73.9686c-0.35604,0 -0.645,-0.28896 -0.645,-0.645v-2.60236c0,-0.35604 0.28896,-0.645 0.645,-0.645c0.35604,0 0.645,0.28896 0.645,0.645v2.60236c0,0.35604 -0.28896,0.645 -0.645,0.645z" fill="#472b29"></path><path d="M90.64744,105.34312c0,1.29516 -0.45064,2.39424 -1.35192,3.2938c-0.903,0.903 -1.98316,1.35536 -3.23704,1.35536c-1.29344,0 -2.40456,-0.45236 -3.32304,-1.35536c-0.92192,-0.89956 -1.3846,-1.99864 -1.3846,-3.2938c0,-1.25388 0.46268,-2.34436 1.3846,-3.26628c0.9202,-0.92192 2.0296,-1.38116 3.32304,-1.38116c1.25388,0 2.33404,0.45924 3.23704,1.38116c0.903,0.92192 1.35192,2.01068 1.35192,3.26628zM84.23356,96.5178c-0.19608,-4.27592 -0.44032,-7.86556 -0.73444,-10.76892c-0.29412,-2.90164 -0.58824,-5.34404 -0.88064,-7.32376c-0.29412,-1.98316 -0.5504,-3.59824 -0.7654,-4.85556c-0.215,-1.25388 -0.32336,-2.39252 -0.32336,-3.41248c0,-1.8834 0.4214,-3.16824 1.2642,-3.85452c0.8428,-0.68628 1.97284,-1.03028 3.38324,-1.03028c1.37428,0 2.46132,0.3526 3.26628,1.0578c0.80496,0.70692 1.20744,1.94188 1.20744,3.70832c0,1.01996 -0.09804,2.1758 -0.29412,3.46924c-0.19608,1.29516 -0.44032,2.9326 -0.73444,4.91576c-0.29412,1.97972 -0.60888,4.42212 -0.94084,7.32376c-0.3354,2.90336 -0.63984,6.493 -0.9116,10.76892h-3.53632z" fill="#fdfcee"></path><path d="M86.05848,110.59428c-1.45168,0 -2.71244,-0.51428 -3.74444,-1.52908c-1.03888,-1.01308 -1.5652,-2.26524 -1.5652,-3.7238c0,-1.41384 0.5246,-2.65568 1.56004,-3.69112c1.032,-1.03372 2.29276,-1.55832 3.7496,-1.55832c1.41728,0 2.65052,0.52632 3.66704,1.56176c1.01136,1.03372 1.52564,2.27384 1.52564,3.68768c0,1.45684 -0.51428,2.70728 -1.5308,3.72036c-1.0148,1.01652 -2.24804,1.53252 -3.66188,1.53252zM86.05848,101.29768c-1.14036,0 -2.08808,0.39388 -2.8982,1.204c-0.81356,0.81356 -1.20744,1.74236 -1.20744,2.84144c0,1.13692 0.39388,2.0726 1.20228,2.8638c0.81184,0.79636 1.76128,1.18336 2.90336,1.18336c1.09908,0 2.01756,-0.38528 2.81048,-1.17992c0.7912,-0.78948 1.17648,-1.72688 1.17648,-2.86724c0,-1.10252 -0.387,-2.03304 -1.18164,-2.84488c-0.78948,-0.8084 -1.70796,-1.20056 -2.80532,-1.20056zM87.76472,97.1198h-3.53116c-0.32164,0 -0.58652,-0.25284 -0.602,-0.57448c-0.19608,-4.25872 -0.44204,-7.87072 -0.73272,-10.73624c-0.28896,-2.85864 -0.5848,-5.31308 -0.8772,-7.29624c-0.2924,-1.97628 -0.54868,-3.58792 -0.76368,-4.8418c-0.22016,-1.28484 -0.33196,-2.46648 -0.33196,-3.51224c0,-2.09152 0.48676,-3.50536 1.48608,-4.32064c0.94772,-0.77228 2.21536,-1.16444 3.76336,-1.16444c1.51704,0 2.75028,0.40592 3.66188,1.20744c0.93568,0.82216 1.41212,2.22224 1.41212,4.16068c0,1.04576 -0.10148,2.24288 -0.301,3.5604l-0.73444,4.91232c-0.29068,1.9522 -0.60716,4.40836 -0.9374,7.30484c-0.33196,2.87584 -0.63984,6.48956 -0.90988,10.73968c-0.02064,0.31476 -0.2838,0.56072 -0.602,0.56072zM84.80976,95.9158h2.39252c0.26316,-4.02652 0.559,-7.46824 0.87892,-10.23572c0.33368,-2.9068 0.65016,-5.37844 0.94256,-7.3444l0.73444,-4.91748c0.19092,-1.2556 0.28724,-2.39424 0.28724,-3.37808c0,-1.57724 -0.33712,-2.67116 -1.00276,-3.25596c-0.6966,-0.6106 -1.634,-0.90816 -2.86724,-0.90816c-1.26592,0 -2.27556,0.301 -3.00312,0.8944c-0.69144,0.56416 -1.04232,1.70452 -1.04232,3.3884c0,0.97868 0.10664,2.09152 0.31476,3.30928c0.21672,1.26076 0.473,2.881 0.76884,4.86932c0.29584,2.00208 0.5934,4.47544 0.88408,7.35128c0.28036,2.75716 0.51944,6.19544 0.71208,10.22712z" fill="#472b29"></path><path d="M138.71284,131.69524c3.23876,0 6.04924,0 6.0888,0c3.6292,0 6.57212,-2.87928 6.57212,-6.43108c0,-3.09944 -2.23944,-5.6846 -5.2202,-6.2952c0.0344,-0.27176 0.05848,-0.54524 0.05848,-0.8256c0,-3.67908 -3.04784,-6.66156 -6.80604,-6.66156c-2.2188,0 -4.18476,1.04404 -5.4266,2.65396c-0.3182,-4.09532 -4.05576,-7.25496 -8.428,-6.73036c-3.19748,0.38356 -5.84284,2.80188 -6.43108,5.90132c-0.1892,0.99416 -0.16856,1.95908 0.01892,2.8638c-0.85656,-0.903 -2.07776,-1.47232 -3.43656,-1.47232c-2.48712,0 -4.51844,1.89544 -4.6784,4.28968c-1.13004,-0.24424 -2.35812,-0.22876 -3.65156,0.24596c-2.47336,0.90816 -4.23464,3.18716 -4.33784,5.77232c-0.1462,3.66876 2.85004,6.68908 6.56696,6.68908c0.28208,0 1.27452,0 1.50328,0h13.64648M127.5724,131.69524h0.6192" fill="#fdfcef"></path><path d="M144.80336,132.55524h-6.09052c-0.47472,0 -0.86,-0.38528 -0.86,-0.86c0,-0.47472 0.38528,-0.86 0.86,-0.86h6.09052c3.14932,0 5.7104,-2.49916 5.7104,-5.57108c0,-2.62128 -1.90576,-4.91404 -4.53392,-5.4524c-0.44032,-0.08944 -0.73788,-0.50396 -0.68112,-0.95116c0.03096,-0.23564 0.0516,-0.47472 0.0516,-0.71724c0,-3.1992 -2.66772,-5.80156 -5.94604,-5.80156c-1.87824,0 -3.60856,0.84452 -4.74548,2.31856c-0.21844,0.28208 -0.58824,0.39732 -0.92708,0.29756c-0.34056,-0.10148 -0.58308,-0.40248 -0.6106,-0.7568c-0.13588,-1.75268 -0.9718,-3.34368 -2.3564,-4.47888c-1.42416,-1.1696 -3.24048,-1.68732 -5.11356,-1.46544c-2.83112,0.33884 -5.17032,2.48024 -5.68804,5.20816c-0.16168,0.84968 -0.15652,1.69936 0.0172,2.53012c0.0774,0.37668 -0.1032,0.75852 -0.44376,0.93568c-0.33884,0.17888 -0.7568,0.11008 -1.0234,-0.17028c-0.73616,-0.77744 -1.73548,-1.204 -2.81392,-1.204c-2.01068,0 -3.6894,1.53252 -3.82012,3.48644c-0.0172,0.2494 -0.14104,0.47988 -0.34056,0.62952c-0.19952,0.15136 -0.45236,0.2064 -0.70004,0.15308c-1.09736,-0.23908 -2.13624,-0.16684 -3.1734,0.21328c-2.17064,0.79808 -3.68768,2.80704 -3.7754,4.99832c-0.0602,1.505 0.48676,2.93776 1.5394,4.0334c1.0922,1.13692 2.57312,1.76128 4.16756,1.76128h15.14976c0.47472,0 0.86,0.38528 0.86,0.86c0,0.47472 -0.38528,0.86 -0.86,0.86h-15.14976c-2.0382,0 -4.00932,-0.8342 -5.40768,-2.29104c-1.38116,-1.4362 -2.09668,-3.31616 -2.01756,-5.29416c0.11524,-2.87928 2.08464,-5.50916 4.902,-6.5446c1.0492,-0.387 2.13624,-0.52632 3.2336,-0.4214c0.59168,-2.3994 2.80188,-4.16928 5.3922,-4.16928c0.84796,0 1.68044,0.19436 2.43208,0.55556c0.01548,-0.41624 0.06364,-0.83248 0.14276,-1.24872c0.65532,-3.45548 3.60512,-6.16792 7.1724,-6.59448c2.34092,-0.27348 4.6182,0.37496 6.40872,1.84384c1.28656,1.05436 2.19816,2.42348 2.65912,3.95944c1.36052,-1.11456 3.0702,-1.73204 4.88824,-1.73204c4.22776,0 7.66604,3.37292 7.66604,7.52156c0,0.05848 0,0.11696 -0.00172,0.17716c3.03408,0.9546 5.16516,3.76336 5.16516,6.94536c0.00172,4.0248 -3.33164,7.29624 -7.42868,7.29624zM128.1916,132.55524h-0.6192c-0.47472,0 -0.86,-0.38528 -0.86,-0.86c0,-0.47472 0.38528,-0.86 0.86,-0.86h0.6192c0.47472,0 0.86,0.38528 0.86,0.86c0,0.47472 -0.38528,0.86 -0.86,0.86z" fill="#472b29"></path><path d="M141.8656,122.57408c-0.03096,0 -0.06364,-0.00344 -0.0946,-0.01032c-0.2322,-0.0516 -0.37668,-0.2838 -0.32336,-0.51428c0.06536,-0.28724 0.1634,-0.56244 0.29068,-0.82388c1.03888,-2.10528 3.91128,-2.88272 6.40184,-1.73204c0.215,0.09976 0.3096,0.35604 0.20984,0.57104c-0.09976,0.215 -0.35604,0.3096 -0.57104,0.20984c-2.06572,-0.95632 -4.43416,-0.35776 -5.26836,1.33128c-0.09976,0.19952 -0.17372,0.4128 -0.2236,0.63124c-0.04816,0.20124 -0.22532,0.33712 -0.4214,0.33712zM132.99212,132.55524h-1.90404c-0.47472,0 -0.86,-0.38528 -0.86,-0.86c0,-0.47472 0.38528,-0.86 0.86,-0.86h1.90404c0.47472,0 0.86,0.38528 0.86,0.86c0,0.47472 -0.38356,0.86 -0.86,0.86zM99.65336,128.35672c-0.04644,0 -0.0946,-0.01204 -0.1376,-0.03956c-0.1204,-0.07568 -0.15652,-0.23564 -0.08084,-0.35604l3.37464,-5.34232c0.0774,-0.1204 0.23392,-0.15652 0.35604,-0.08084c0.1204,0.07568 0.15652,0.23564 0.08084,0.35604l-3.37464,5.34232c-0.04988,0.07912 -0.13416,0.1204 -0.21844,0.1204zM97.93336,128.35672c-0.04644,0 -0.0946,-0.01204 -0.1376,-0.03956c-0.1204,-0.07568 -0.15652,-0.23564 -0.08084,-0.35604l3.37464,-5.34232c0.07568,-0.1204 0.23564,-0.15652 0.35604,-0.08084c0.1204,0.07568 0.15652,0.23564 0.08084,0.35604l-3.37464,5.34232c-0.04988,0.07912 -0.13416,0.1204 -0.21844,0.1204zM96.21336,128.35672c-0.04644,0 -0.0946,-0.01204 -0.1376,-0.03956c-0.1204,-0.07568 -0.15652,-0.23564 -0.08084,-0.35604l3.37464,-5.34232c0.07568,-0.1204 0.23564,-0.15652 0.35604,-0.08084c0.1204,0.07568 0.15652,0.23564 0.08084,0.35604l-3.37464,5.34232c-0.04988,0.07912 -0.13416,0.1204 -0.21844,0.1204zM94.49336,128.35672c-0.04644,0 -0.0946,-0.01204 -0.1376,-0.03956c-0.1204,-0.07568 -0.15652,-0.23564 -0.08084,-0.35604l3.37464,-5.34232c0.07568,-0.1204 0.23564,-0.15652 0.35604,-0.08084c0.1204,0.07568 0.15652,0.23564 0.08084,0.35604l-3.37464,5.34232c-0.04988,0.07912 -0.13416,0.1204 -0.21844,0.1204zM92.77336,128.35672c-0.04644,0 -0.0946,-0.01204 -0.1376,-0.03956c-0.1204,-0.07568 -0.15652,-0.23564 -0.08084,-0.35604l3.37464,-5.34232c0.07568,-0.1204 0.23564,-0.15652 0.35604,-0.08084c0.1204,0.07568 0.15652,0.23564 0.08084,0.35604l-3.37464,5.34232c-0.04988,0.07912 -0.13416,0.1204 -0.21844,0.1204zM91.05336,128.35672c-0.04644,0 -0.0946,-0.01204 -0.1376,-0.03956c-0.1204,-0.07568 -0.15652,-0.23564 -0.08084,-0.35604l3.37464,-5.34232c0.07568,-0.1204 0.23564,-0.15652 0.35604,-0.08084c0.1204,0.07568 0.15652,0.23564 0.08084,0.35604l-3.37464,5.34232c-0.04988,0.07912 -0.13416,0.1204 -0.21844,0.1204zM89.33336,128.35672c-0.04644,0 -0.0946,-0.01204 -0.1376,-0.03956c-0.1204,-0.07568 -0.15652,-0.23564 -0.08084,-0.35604l2.23084,-3.53116c0.07568,-0.1204 0.23564,-0.15652 0.35604,-0.08084c0.1204,0.07568 0.15652,0.23564 0.08084,0.35604l-2.23084,3.53116c-0.04988,0.07912 -0.13416,0.1204 -0.21844,0.1204zM87.61336,128.35672c-0.04644,0 -0.0946,-0.01204 -0.1376,-0.03956c-0.1204,-0.07568 -0.15652,-0.23564 -0.08084,-0.35604l1.40008,-2.21708c0.0774,-0.12212 0.23564,-0.1548 0.35604,-0.08084c0.1204,0.07568 0.15652,0.23564 0.08084,0.35604l-1.40008,2.21708c-0.04988,0.07912 -0.13416,0.1204 -0.21844,0.1204z" fill="#472b29"></path></g></g></svg>