<svg version="1.1" xmlns="http://www.w3.org/2000/svg" xmlns:xlink="http://www.w3.org/1999/xlink" viewBox="0 0 226 226"><g fill="none" fill-rule="nonzero" stroke="none" stroke-width="1" stroke-linecap="butt" stroke-linejoin="miter" stroke-miterlimit="10" stroke-dasharray="" stroke-dashoffset="0" font-family="none" font-weight="none" font-size="none" text-anchor="none" style="mix-blend-mode: normal"><path d="M0,226v-226h226v226z" fill="none"></path><g><path d="M197.1059,128.1646c2.5651,-4.8703 4.0341,-10.4073 4.0341,-16.2946c0,-14.96346 -9.39934,-27.70082 -22.60226,-32.72028c0,-0.01582 0.00226,-0.03164 0.00226,-0.04972c0,-26.21148 -21.24852,-47.46 -47.46,-47.46c-22.11184,0 -40.63706,15.14426 -45.90738,35.61082c-3.33576,-1.0961 -6.89074,-1.71082 -10.59262,-1.71082c-17.38392,0 -31.69198,13.09218 -33.6514,29.94952c-11.76104,2.48826 -20.5886,12.92042 -20.5886,25.42048c0,14.35326 11.63674,25.99 25.99,25.99c0.40002,0 0.79552,-0.02712 1.18876,-0.04972c-0.00904,0.3955 -0.05876,0.78196 -0.05876,1.17972c0,25.58772 20.74228,46.33 46.33,46.33c14.54762,0 27.5155,-6.71672 36.01084,-17.20764c4.92228,5.0285 11.76556,8.16764 19.35916,8.16764c10.509,0 19.60324,-5.989 24.10516,-14.73068c2.37752,0.7571 4.90646,1.17068 7.53484,1.17068c13.7295,0 24.86,-11.1305 24.86,-24.86c0,-7.48286 -3.3222,-14.17698 -8.5541,-18.7354z" fill="#a2dbfa"></path><path d="M62.15,171.76h-22.6c-0.62376,0 -1.13,-0.50624 -1.13,-1.13c0,-0.62376 0.50624,-1.13 1.13,-1.13h22.6c0.62376,0 1.13,0.50624 1.13,1.13c0,0.62376 -0.50398,1.13 -1.13,1.13zM68.93,171.76h-2.26c-0.62376,0 -1.13,-0.50624 -1.13,-1.13c0,-0.62376 0.50624,-1.13 1.13,-1.13h2.26c0.62376,0 1.13,0.50624 1.13,1.13c0,0.62376 -0.50398,1.13 -1.13,1.13zM80.20966,176.28h-20.31966c-0.62376,0 -1.13,-0.50624 -1.13,-1.13c0,-0.62376 0.50624,-1.13 1.13,-1.13h20.31966c0.62376,0 1.13,0.50624 1.13,1.13c0,0.62376 -0.50624,1.13 -1.13,1.13zM55.37,176.28h-2.26c-0.62376,0 -1.13,-0.50624 -1.13,-1.13c0,-0.62376 0.50624,-1.13 1.13,-1.13h2.26c0.62376,0 1.13,0.50624 1.13,1.13c0,0.62376 -0.50398,1.13 -1.13,1.13zM48.59,176.28h-4.52c-0.62376,0 -1.13,-0.50624 -1.13,-1.13c0,-0.62376 0.50624,-1.13 1.13,-1.13h4.52c0.62376,0 1.13,0.50624 1.13,1.13c0,0.62376 -0.50398,1.13 -1.13,1.13zM62.15,180.8h-4.52c-0.62376,0 -1.13,-0.50624 -1.13,-1.13c0,-0.62376 0.50624,-1.13 1.13,-1.13h4.52c0.62376,0 1.13,0.50624 1.13,1.13c0,0.62376 -0.50624,1.13 -1.13,1.13zM68.93,160.46c-0.40002,0 -1.85998,0 -2.26,0c-0.62376,0 -1.13,0.50624 -1.13,1.13c0,0.62376 0.50624,1.13 1.13,1.13c0.40002,0 1.85998,0 2.26,0c0.62376,0 1.13,-0.50624 1.13,-1.13c0,-0.62376 -0.50624,-1.13 -1.13,-1.13zM68.93,164.98c-0.40002,0 -10.89998,0 -11.3,0c-0.62376,0 -1.13,0.50624 -1.13,1.13c0,0.62376 0.50624,1.13 1.13,1.13c0.40002,0 10.89998,0 11.3,0c0.62376,0 1.13,-0.50624 1.13,-1.13c0,-0.62376 -0.50624,-1.13 -1.13,-1.13zM80.23,169.5c-0.40002,0 -6.37998,0 -6.78,0c-0.62376,0 -1.13,0.50624 -1.13,1.13c0,0.62376 0.50624,1.13 1.13,1.13c0.40002,0 6.37998,0 6.78,0c0.62376,0 1.13,-0.50624 1.13,-1.13c0,-0.62376 -0.50624,-1.13 -1.13,-1.13z" fill="#ffffff"></path><g fill="#ffffff"><path d="M152.55,45.2h-22.6c-0.62376,0 -1.13,-0.50624 -1.13,-1.13c0,-0.62376 0.50624,-1.13 1.13,-1.13h22.6c0.62376,0 1.13,0.50624 1.13,1.13c0,0.62376 -0.50624,1.13 -1.13,1.13zM161.59,45.2h-4.52c-0.62376,0 -1.13,-0.50624 -1.13,-1.13c0,-0.62376 0.50624,-1.13 1.13,-1.13h4.52c0.62376,0 1.13,0.50624 1.13,1.13c0,0.62376 -0.50624,1.13 -1.13,1.13zM172.89,49.72h-22.6c-0.62376,0 -1.13,-0.50624 -1.13,-1.13c0,-0.62376 0.50624,-1.13 1.13,-1.13h22.6c0.62376,0 1.13,0.50624 1.13,1.13c0,0.62376 -0.50398,1.13 -1.13,1.13zM145.77,49.72h-2.26c-0.62376,0 -1.13,-0.50624 -1.13,-1.13c0,-0.62376 0.50624,-1.13 1.13,-1.13h2.26c0.62376,0 1.13,0.50624 1.13,1.13c0,0.62376 -0.50624,1.13 -1.13,1.13zM138.9222,49.72h-4.4522c-0.62376,0 -1.13,-0.50624 -1.13,-1.13c0,-0.62376 0.50624,-1.13 1.13,-1.13h4.4522c0.62376,0 1.13,0.50624 1.13,1.13c0,0.62376 -0.50624,1.13 -1.13,1.13zM159.33,40.68h-11.3c-0.62376,0 -1.13,-0.50624 -1.13,-1.13c0,-0.62376 0.50624,-1.13 1.13,-1.13h11.3c0.62376,0 1.13,0.50624 1.13,1.13c0,0.62376 -0.50398,1.13 -1.13,1.13zM152.55,54.24h-4.52c-0.62376,0 -1.13,-0.50624 -1.13,-1.13c0,-0.62376 0.50624,-1.13 1.13,-1.13h4.52c0.62376,0 1.13,0.50624 1.13,1.13c0,0.62376 -0.50624,1.13 -1.13,1.13z"></path></g><g fill="#472b29"><path d="M67.75254,133.05298c-0.80682,0 -1.49838,-0.61698 -1.57296,-1.43962c-0.08814,-0.9831 -2.03174,-24.182 11.04462,-37.25836c0.61698,-0.61698 1.62042,-0.61698 2.2374,0c0.61698,0.61698 0.61698,1.62042 0,2.2374c-12.04128,12.03902 -10.14966,34.5102 -10.12932,34.73394c0.0791,0.8701 -0.56274,1.64076 -1.43284,1.71986c-0.05198,0.00452 -0.09944,0.00678 -0.1469,0.00678zM91.04862,84.35224c-0.50172,0 -0.99214,-0.2373 -1.30176,-0.68026c-0.49946,-0.71642 -0.32092,-1.70404 0.39776,-2.2035c17.18278,-11.93732 39.39406,-5.7856 40.33422,-5.5144c0.83846,0.2373 1.32662,1.11418 1.0848,1.95264c-0.24182,0.83846 -1.11644,1.34018 -1.95264,1.08706c-0.21696,-0.05876 -21.72764,-5.99352 -37.66064,5.0737c-0.27798,0.1921 -0.58986,0.28476 -0.90174,0.28476zM158.80794,99.17332c-0.51302,0 -1.01248,-0.24634 -1.31758,-0.70512c-8.08176,-12.12038 -20.85076,-17.3568 -20.97732,-17.40878c-0.80908,-0.32544 -1.20232,-1.24752 -0.87914,-2.0566c0.32318,-0.80908 1.25204,-1.19554 2.05434,-0.8814c0.56048,0.226 13.79052,5.6274 22.43276,18.59076c0.4859,0.72772 0.28928,1.71082 -0.43618,2.19446c-0.27346,0.1808 -0.57856,0.26668 -0.87688,0.26668zM165.15854,143.64108c-0.13108,0 -0.2599,-0.01582 -0.39098,-0.04746c-0.84524,-0.2147 -1.36052,-1.07576 -1.14582,-1.92326c4.11772,-16.30138 1.28142,-31.65582 -1.93004,-36.89676c-0.45652,-0.7458 -0.22374,-1.71986 0.5198,-2.17638c0.75032,-0.46104 1.72212,-0.21922 2.17638,0.5198c3.49622,5.70198 6.64214,22.14574 2.30294,39.32852c-0.1808,0.71642 -0.8249,1.19554 -1.53228,1.19554z"></path><path d="M158.80568,86.46986c-0.4294,0 -0.8588,-0.17402 -1.17068,-0.51754c-20.34,-22.37174 -51.14832,-16.51608 -51.45568,-16.45054c-0.8588,0.1469 -1.69274,-0.3842 -1.86224,-1.24074c-0.17176,-0.8588 0.3842,-1.69048 1.24074,-1.86224c0.32544,-0.06328 32.88752,-6.25794 54.41628,17.42686c0.58986,0.64636 0.54014,1.64754 -0.10622,2.23288c-0.30284,0.27346 -0.68252,0.41132 -1.0622,0.41132zM78.34064,84.35224c-0.40454,0 -0.80908,-0.15368 -1.1187,-0.4633c-0.61698,-0.61698 -0.61698,-1.62042 0,-2.2374c3.11654,-3.1188 9.60048,-9.60726 18.62466,-12.56108c0.82942,-0.26442 1.72438,0.1808 1.99558,1.01022c0.2712,0.82942 -0.1808,1.72438 -1.01022,1.99558c-8.3055,2.71878 -14.4301,8.84564 -17.37262,11.79268c-0.30962,0.30962 -0.7119,0.4633 -1.1187,0.4633zM78.3429,116.11428c-0.0904,0 -0.1808,-0.00904 -0.2712,-0.02486c-0.86106,-0.1469 -1.43962,-0.96728 -1.2882,-1.82834c0.97858,-5.65 7.86932,-20.566 21.98076,-28.08502c11.17344,-5.95962 23.93566,-5.80368 37.9228,0.43844c0.80004,0.35708 1.15712,1.29272 0.80004,2.0905c-0.35482,0.80004 -1.29272,1.15034 -2.0905,0.80004c-13.05828,-5.8308 -24.8826,-6.00708 -35.14752,-0.53788c-13.3453,7.11222 -19.58742,21.42254 -20.3513,25.8318c-0.13108,0.77292 -0.80004,1.31532 -1.55488,1.31532zM156.69032,139.40584c-0.11074,0 -0.22374,-0.0113 -0.33222,-0.03616c-0.85428,-0.18306 -1.39894,-1.02378 -1.21588,-1.87806c6.0342,-28.16412 -12.9837,-43.61122 -13.17806,-43.75812c-0.69608,-0.5311 -0.82716,-1.5255 -0.29832,-2.21706c0.52658,-0.69608 1.51872,-0.83168 2.21706,-0.29832c0.21018,0.16046 20.90048,16.37822 14.35326,46.93794c-0.16046,0.74128 -0.81812,1.24978 -1.54584,1.24978zM76.22528,149.99168c-0.87462,0 -1.57974,-0.70738 -1.582,-1.582c0,-0.87236 0.70738,-1.57974 1.582,-1.582c0.22148,0 22.32654,-0.18306 28.19124,-13.86284c0.34804,-0.8023 1.27916,-1.16616 2.07694,-0.83168c0.8023,0.34352 1.17746,1.27464 0.83168,2.07694c-6.69186,15.60304 -30.10772,15.78158 -31.09986,15.78158z"></path><path d="M112.2203,156.3468c-0.452,0 -0.90174,-0.19436 -1.21588,-0.56952c-0.55822,-0.67122 -0.46782,-1.66788 0.2034,-2.22836c8.05238,-6.7122 12.13394,-16.27652 12.13394,-28.42854c0,-2.57414 -0.89496,-6.88848 -6.88622,-6.88848c-5.05788,0 -6.91786,7.20036 -6.93594,7.27268c-0.21244,0.8475 -1.08706,1.35826 -1.91874,1.15034c-0.8475,-0.21244 -1.36278,-1.07124 -1.15034,-1.91874c0.09718,-0.3955 2.50182,-9.66828 10.00502,-9.66828c7.41054,0 10.05022,5.19348 10.05022,10.05248c0,13.13738 -4.46802,23.51756 -13.27298,30.8603c-0.2938,0.24408 -0.6554,0.36612 -1.01248,0.36612z"></path><path d="M78.33838,158.46216c-0.83168,0 -1.53228,-0.65088 -1.57748,-1.49386c-0.04746,-0.87462 0.61924,-1.62042 1.4916,-1.66788c36.20746,-2.0114 36.62104,-29.03196 36.62104,-30.18004c0,-0.87462 0.70738,-1.582 1.582,-1.582c0.87462,0 1.582,0.70738 1.582,1.582c0,0.31188 -0.452,31.1654 -39.60876,33.34178c-0.03164,-0.00226 -0.05876,0 -0.0904,0zM131.27888,143.64108c-0.15594,0 -0.3164,-0.02486 -0.47234,-0.07232c-0.83394,-0.2599 -1.29724,-1.14808 -1.03734,-1.98202c3.57532,-11.44012 3.34706,-20.02812 -0.67574,-25.52896c-4.52678,-6.18562 -12.56108,-6.29636 -12.64244,-6.29636c-0.87236,-0.00452 -1.57748,-0.71416 -1.57522,-1.58652c0.00226,-0.87236 0.70738,-1.57748 1.57974,-1.57748c0.39324,0 9.67054,0.08588 15.16686,7.5597c4.67142,6.35738 5.0624,15.90136 1.16616,28.37656c-0.21244,0.67122 -0.8362,1.1074 -1.50968,1.1074zM74.10766,141.52346c-0.87462,0 -1.582,-0.70738 -1.582,-1.582c0,-0.87462 0.70738,-1.582 1.582,-1.582c20.9954,0 23.82492,-6.69186 23.82492,-13.23908c0,-11.43334 10.3169,-16.724 10.7576,-16.94322c0.77744,-0.3955 1.72664,-0.07458 2.11988,0.70512c0.39098,0.7797 0.07684,1.73116 -0.70286,2.12214c-0.36838,0.18758 -9.01062,4.66464 -9.01062,14.11596c0,14.7013 -15.4019,16.40308 -26.98892,16.40308z"></path><path d="M91.93002,125.2944l-1.56844,-0.23956c1.54584,-20.27898 12.63792,-25.8318 21.67114,-26.9166c15.91492,-1.8984 27.0522,9.58918 29.21276,15.87876c0.28476,0.82716 -0.15594,1.72664 -0.9831,2.0114c-0.82942,0.27798 -1.72664,-0.15594 -2.0114,-0.9831c-1.63624,-4.7686 -11.41074,-15.4923 -25.84084,-13.76566c-11.42882,1.37182 -17.78394,9.45358 -18.8936,24.01476zM135.5096,152.11156c-0.32996,0 -0.66218,-0.10396 -0.94694,-0.31866c-0.7006,-0.52206 -0.84072,-1.5142 -0.3164,-2.21254c5.95962,-7.94616 6.03646,-24.29726 6.03646,-24.45998c0,-0.87462 0.70738,-1.582 1.582,-1.582v0c0.87462,0 1.582,0.70738 1.582,1.582c0,0.7119 -0.07684,17.56698 -6.67152,26.35838c-0.30736,0.41358 -0.78422,0.6328 -1.2656,0.6328zM91.0441,173.2855c-0.75936,0 -1.42832,-0.54692 -1.55714,-1.3221c-0.14238,-0.86106 0.43618,-1.67466 1.2995,-1.82156c0.24634,-0.04294 24.7922,-4.35276 34.87406,-22.50056c0.42488,-0.76388 1.38538,-1.0396 2.15152,-0.61472c0.76388,0.42488 1.0396,1.38764 0.61472,2.15152c-10.83444,19.50154 -36.05152,23.90628 -37.1205,24.08482c-0.08814,0.01582 -0.17628,0.0226 -0.26216,0.0226zM84.6935,166.93264c-0.75936,0 -1.42832,-0.54692 -1.55714,-1.3221c-0.14238,-0.86106 0.43844,-1.67692 1.2995,-1.82156c0.1243,-0.02034 12.44582,-2.11536 18.43708,-6.10878c0.73676,-0.48816 1.71308,-0.28702 2.19446,0.43618c0.4859,0.72772 0.28928,1.71082 -0.43618,2.19446c-6.55852,4.37536 -19.1422,6.51106 -19.6733,6.5992c-0.0904,0.01582 -0.17854,0.0226 -0.26442,0.0226zM84.6935,133.05298c-0.75936,0 -1.43058,-0.54692 -1.55714,-1.3221c-0.0904,-0.5424 -2.13796,-13.40632 4.43638,-24.36732c0.44974,-0.74806 1.41702,-0.9944 2.17186,-0.5424c0.74806,0.44974 0.98988,1.42154 0.5424,2.17186c-5.98222,9.97338 -4.04992,22.09602 -4.02958,22.21806c0.14238,0.86332 -0.43844,1.67692 -1.2995,1.82156c-0.0904,0.01356 -0.17854,0.02034 -0.26442,0.02034z"></path><path d="M150.3352,130.93762c-0.87462,0 -1.582,-0.70738 -1.582,-1.582c0,-11.74748 -3.24988,-20.95246 -9.66376,-27.35504c-6.78226,-6.7687 -16.10024,-9.18012 -22.5774,-9.18012c-0.01808,0 -0.0339,0 -0.04972,0c-9.82874,0.02034 -17.83818,5.44886 -19.98066,7.92356c-0.5763,0.66218 -1.57522,0.72998 -2.23062,0.16046c-0.66218,-0.57404 -0.73224,-1.5707 -0.16046,-2.23062c2.5425,-2.93348 11.34972,-8.99254 22.36722,-9.0174c0.01808,0 0.03616,0 0.05198,0c7.11222,0 17.35002,2.65324 24.81254,10.10446c7.03086,7.0173 10.59488,16.97486 10.59488,29.5947c0,0.87236 -0.70964,1.582 -1.582,1.582zM158.80568,156.3468c-0.28702,0 -7.06024,-0.05198 -11.7068,-4.69854c-4.9833,-4.98556 -0.49042,-14.14534 -0.29606,-14.53406c0.39098,-0.7797 1.34018,-1.09158 2.11988,-0.70738c0.78196,0.38872 1.09836,1.34018 0.70964,2.11988c-1.03282,2.07694 -3.09846,8.08176 -0.29832,10.87964c3.70188,3.70188 9.41516,3.77194 9.47166,3.77194c0.87236,0.00452 1.57748,0.71416 1.57522,1.58652c-0.00226,0.87236 -0.70512,1.582 -1.57522,1.582zM110.10494,175.40086c-0.61698,0 -1.20684,-0.36612 -1.45996,-0.97406c-0.33448,-0.80682 0.04746,-1.73342 0.85202,-2.07016c0.04294,-0.01582 4.19004,-1.75376 8.28064,-4.14032c6.94724,-4.0567 11.526,-0.60568 12.35316,0.11074l6.26246,4.17648c0.72546,0.48364 0.92208,1.46448 0.43618,2.19446c-0.48364,0.72546 -1.4577,0.93112 -2.19446,0.43618l-6.35286,-4.23524c-0.07684,-0.04972 -0.15142,-0.11074 -0.21922,-0.17628c-0.11978,-0.10848 -3.28378,-2.9267 -8.69422,0.22826c-4.27818,2.49504 -8.47952,4.25558 -8.6558,4.33016c-0.19888,0.08136 -0.40454,0.11978 -0.60794,0.11978zM76.22528,135.1706c-0.87462,0 -1.582,-0.70738 -1.582,-1.582v-10.5881c0,-0.87462 0.70738,-1.582 1.582,-1.582c0.87462,0 1.582,0.70738 1.582,1.582v10.5881c0,0.87236 -0.70964,1.582 -1.582,1.582zM144.86826,169.40282c-0.0791,0 -0.15594,-0.00678 -0.23504,-0.01808c-4.2262,-0.6328 -8.86824,-2.95834 -11.82432,-5.91668c-3.76064,-3.7629 -1.28594,-8.84564 -1.17746,-9.06034c0.38872,-0.78196 1.3447,-1.09836 2.11988,-0.70738c0.7797,0.38872 1.0961,1.33566 0.7119,2.11536v0c-0.06328,0.13334 -1.55488,3.277 0.58308,5.41496c2.51086,2.51312 6.45682,4.48384 10.05474,5.02624c0.86558,0.13108 1.45996,0.93564 1.33114,1.79896c-0.11978,0.78422 -0.79552,1.34696 -1.56392,1.34696zM150.8663,162.6974c-0.08588,0 -0.17402,-0.00678 -0.26216,-0.0226c-5.74492,-0.95824 -9.88298,-5.22738 -10.057,-5.41044c-0.60342,-0.62828 -0.58082,-1.62946 0.04746,-2.23062c0.63054,-0.6102 1.62946,-0.58986 2.23514,0.0452c0.03616,0.03616 3.60922,3.6951 8.2942,4.4748c0.86106,0.14238 1.44414,0.95824 1.2995,1.82156c-0.12656,0.77292 -0.79778,1.3221 -1.55714,1.3221z"></path></g><g><path d="M175.15,98.31v1.13h6.78v-1.13c0,0 9.58692,0 12.43,0c5.6161,0 10.17,-4.5539 10.17,-10.17c0,-5.27258 -4.02732,-9.55754 -9.1643,-10.0683c0.04972,-0.40906 0.1243,-0.80908 0.1243,-1.2317c0,-5.6161 -4.5539,-10.17 -10.17,-10.17c-3.24988,0 -6.10878,1.55036 -7.97102,3.92336c-0.3164,-5.95736 -5.20252,-10.70336 -11.23898,-10.70336c-6.23986,0 -11.3,5.06014 -11.3,11.3c0,1.00796 0.17402,1.9662 0.42262,2.89732c-1.45092,-1.75602 -3.61826,-2.89732 -6.07262,-2.89732c-4.02506,0 -7.30884,3.0171 -7.8083,6.9043c-0.40906,-0.04972 -0.80908,-0.1243 -1.2317,-0.1243c-5.6161,0 -10.17,4.5539 -10.17,10.17c0,5.6161 4.5539,10.17 10.17,10.17c5.6161,0 21.47,0 21.47,0z" fill="#fdfcef"></path><path d="M166.11,58.76c-6.85458,0 -12.43,5.57542 -12.43,12.43c0,0.03616 0,0.07006 0,0.10622c-1.36052,-0.8023 -2.9154,-1.23622 -4.52,-1.23622c-4.13806,0 -7.70886,2.84986 -8.71908,6.7913c-0.10622,-0.00678 -0.21244,-0.0113 -0.32092,-0.0113c-6.23082,0 -11.3,5.06918 -11.3,11.3c0,6.23082 5.06918,11.3 11.3,11.3h35.03c0.62376,0 1.13,-0.50624 1.13,-1.13c0,-0.62376 -0.50624,-1.13 -1.13,-1.13h-35.03c-4.98556,0 -9.04,-4.05444 -9.04,-9.04c0,-4.98556 4.05444,-9.04 9.04,-9.04c0.26442,0 0.5198,0.03842 0.77518,0.07232l0.31866,0.04294c0.04746,0.00678 0.09266,0.00904 0.14012,0.00904c0.55596,0 1.04412,-0.4181 1.1187,-0.98762c0.43166,-3.37418 3.30638,-5.91668 6.68734,-5.91668c2.0001,0 3.89398,0.90626 5.20026,2.486c0.22148,0.26668 0.54466,0.41132 0.87236,0.41132c0.17628,0 0.35256,-0.04068 0.51528,-0.12656c0.47234,-0.24182 0.70964,-0.78196 0.57404,-1.29498c-0.2599,-0.9831 -0.38194,-1.81026 -0.38194,-2.60578c0,-5.60706 4.56294,-10.17 10.17,-10.17c5.38106,0 9.82422,4.23072 10.11124,9.63438c0.02486,0.47008 0.339,0.87462 0.78874,1.017c0.113,0.03616 0.22826,0.05424 0.34352,0.05424c0.339,0 0.66896,-0.15594 0.88592,-0.43392c1.74246,-2.21932 4.32112,-3.4917 7.08058,-3.4917c4.98556,0 9.04,4.05444 9.04,9.04c0,0.26442 -0.03842,0.5198 -0.07232,0.77518l-0.04294,0.31866c-0.03616,0.30284 0.04972,0.60568 0.23956,0.84298c0.18984,0.2373 0.46782,0.38872 0.7684,0.4181c4.64656,0.4633 8.1473,4.30982 8.1473,8.94508c0,4.98556 -4.05444,9.04 -9.04,9.04h-12.43c-0.62376,0 -1.13,0.50624 -1.13,1.13c0,0.62376 0.50624,1.13 1.13,1.13h12.43c6.23082,0 11.3,-5.06918 11.3,-11.3c0,-5.41722 -3.81714,-9.97338 -9.04678,-11.02202c0.00452,-0.09266 0.00678,-0.18532 0.00678,-0.27798c0,-6.23082 -5.06918,-11.3 -11.3,-11.3c-2.65776,0 -5.18218,0.94016 -7.19358,2.63064c-1.35148,-5.43304 -6.24212,-9.41064 -12.01642,-9.41064z" fill="#472b29"></path><path d="M162.72,74.58c-3.17078,0 -5.89634,2.25774 -6.58338,5.29066c-0.82942,-0.50172 -1.77636,-0.77066 -2.73912,-0.77066c-2.71652,0 -4.96748,2.02722 -5.31778,4.67368c-0.45878,-0.10396 -0.89496,-0.15368 -1.31984,-0.15368c-3.45554,0 -6.35286,2.712 -6.59468,6.17432c-0.0226,0.31188 0.21244,0.58308 0.52206,0.60568c0.01356,0 0.02712,0 0.04068,0c0.2938,0 0.5424,-0.22826 0.56274,-0.52432c0.20114,-2.87246 2.60126,-5.12568 5.46694,-5.12568c0.51754,0 1.0622,0.09492 1.66788,0.28702c0.04972,0.01582 0.1017,0.0226 0.15142,0.0226c0.1243,0 0.2486,-0.0452 0.35256,-0.12204c0.14464,-0.10396 0.23052,-0.28928 0.23052,-0.47008c0,-2.33684 1.90066,-4.2375 4.2375,-4.2375c1.01022,0 2.0001,0.37968 2.78206,1.06898c0.10622,0.09266 0.23956,0.14238 0.3729,0.14238c0.07232,0 0.14238,-0.01356 0.21018,-0.04294c0.19888,-0.0791 0.33448,-0.26442 0.3503,-0.47912c0.23504,-2.92218 2.69618,-5.2093 5.60706,-5.2093c0.47008,0 0.9605,0.07684 1.54132,0.24182c0.05198,0.01582 0.10622,0.0226 0.1582,0.0226c0.24634,0 0.46782,-0.16498 0.54014,-0.41132c0.08588,-0.30058 -0.08814,-0.61246 -0.38872,-0.69834c-0.68252,-0.19436 -1.27238,-0.28476 -1.85094,-0.28476zM194.09558,77.97c-2.99676,0 -5.66808,2.02722 -6.49524,4.93132c-0.08588,0.30058 0.08814,0.61246 0.38872,0.69834c0.05424,0.01356 0.10622,0.02034 0.15594,0.02034c0.24634,0 0.47234,-0.16272 0.5424,-0.41132c0.6893,-2.4182 2.91314,-4.10868 5.40818,-4.10868c0.26442,0 0.5198,0.03164 0.77292,0.06554c0.02712,0.00452 0.05198,0.00678 0.0791,0.00678c0.27346,0 0.51754,-0.20792 0.55596,-0.49042c0.04294,-0.30962 -0.17402,-0.59438 -0.48364,-0.63506c-0.30284,-0.04068 -0.6102,-0.07684 -0.92434,-0.07684z" fill="#472b29"></path></g><g><path d="M75.71,141.25c0,0 3.54142,0 7.91,0c4.36858,0 7.91,-3.54142 7.91,-7.91c0,-4.02506 -3.0171,-7.30884 -6.9043,-7.8083c0.06328,-0.40454 0.1243,-0.80908 0.1243,-1.2317c0,-4.36858 -3.54142,-7.91 -7.91,-7.91c-2.33232,0 -4.407,1.0283 -5.8534,2.6329c-0.86784,-4.08608 -4.49062,-7.1529 -8.8366,-7.1529c-4.99234,0 -9.04,4.04766 -9.04,9.04c0,0.43166 0.0678,0.84524 0.12656,1.26108c-0.96728,-0.77744 -2.17864,-1.26108 -3.51656,-1.26108c-2.77528,0 -5.0737,2.00462 -5.5483,4.6443c-0.40454,-0.06328 -0.80908,-0.1243 -1.2317,-0.1243c-4.36858,0 -7.91,3.54142 -7.91,7.91c0,4.36858 3.54142,7.91 7.91,7.91c4.36858,0 16.95,0 16.95,0v1.13h15.82z" fill="#fdfcef"></path><path d="M79.665,131.08c-0.31188,0 -0.565,-0.25312 -0.565,-0.565c0,-2.76398 2.2487,-5.01268 5.01268,-5.01268c0.07684,0.02034 1.66562,-0.00226 2.81144,0.30736c0.30058,0.08136 0.47912,0.39098 0.39776,0.69156c-0.08136,0.30284 -0.39098,0.48138 -0.69156,0.39776c-1.00344,-0.2712 -2.486,-0.2712 -2.51538,-0.26668c-2.14248,0 -3.88494,1.74246 -3.88494,3.88268c0,0.31188 -0.25312,0.565 -0.565,0.565zM64.41,140.12c-0.62408,0 -1.13,0.50592 -1.13,1.13c0,0.62408 0.50592,1.13 1.13,1.13c0.62408,0 1.13,-0.50592 1.13,-1.13c0,-0.62408 -0.50592,-1.13 -1.13,-1.13z" fill="#472b29"></path><path d="M83.62,142.38h-7.91c-0.62376,0 -1.13,-0.50624 -1.13,-1.13c0,-0.62376 0.50624,-1.13 1.13,-1.13h7.91c3.73804,0 6.78,-3.04196 6.78,-6.78c0,-3.38096 -2.5425,-6.25568 -5.91668,-6.68734c-0.30284,-0.04068 -0.5763,-0.19888 -0.75936,-0.44296c-0.18306,-0.24408 -0.2599,-0.55144 -0.21244,-0.85202c0.05198,-0.34804 0.10848,-0.69608 0.10848,-1.05768c0,-3.73804 -3.04196,-6.78 -6.78,-6.78c-1.921,0 -3.70188,0.8023 -5.01494,2.26c-0.2825,0.31414 -0.72546,0.44748 -1.13,0.33448c-0.41132,-0.11074 -0.72546,-0.4407 -0.8136,-0.85654c-0.77066,-3.62504 -4.0228,-6.25794 -7.73146,-6.25794c-4.3618,0 -7.91,3.5482 -7.91,7.91c0,0.32318 0.04746,0.6328 0.09266,0.94468c0.06554,0.45878 -0.14238,0.98988 -0.54692,1.2204c-0.40454,0.23052 -0.89496,0.26668 -1.25656,-0.0226c-0.8249,-0.66218 -1.79444,-1.01248 -2.80918,-1.01248c-2.18316,0 -4.04992,1.56166 -4.43638,3.71544c-0.10848,0.60342 -0.66896,1.00796 -1.28594,0.9153c-0.34804,-0.05424 -0.69608,-0.11074 -1.05768,-0.11074c-3.73804,0 -6.78,3.04196 -6.78,6.78c0,3.73804 3.04196,6.78 6.78,6.78h16.95c0.62376,0 1.13,0.50624 1.13,1.13c0,0.62376 -0.50624,1.13 -1.13,1.13h-16.95c-4.98556,0 -9.04,-4.05444 -9.04,-9.04c0,-4.98556 4.05444,-9.04 9.04,-9.04c0.13334,0 0.26216,0.00452 0.39324,0.01356c0.93564,-2.68036 3.47362,-4.53356 6.38676,-4.53356c0.78874,0 1.55714,0.13786 2.28486,0.4068c0.3729,-5.27258 4.7799,-9.4468 10.14514,-9.4468c4.13806,0 7.83316,2.54702 9.38578,6.26924c1.5368,-1.12548 3.39452,-1.74924 5.30422,-1.74924c4.98556,0 9.04,4.05444 9.04,9.04c0,0.10848 -0.00226,0.2147 -0.00904,0.32092c3.93918,1.01248 6.78904,4.58102 6.78904,8.71908c0,4.98556 -4.05444,9.04 -9.04,9.04z" fill="#472b29"></path><path d="M71.19,140.12c-0.35934,0 -1.90066,0 -2.26,0c-0.62376,0 -1.13,0.50624 -1.13,1.13c0,0.62376 0.50624,1.13 1.13,1.13c0.35934,0 1.90066,0 2.26,0c0.62376,0 1.13,-0.50624 1.13,-1.13c0,-0.62376 -0.50624,-1.13 -1.13,-1.13z" fill="#472b29"></path></g></g></g></svg>