<svg version="1.1" xmlns="http://www.w3.org/2000/svg" xmlns:xlink="http://www.w3.org/1999/xlink" viewBox="0 0 226 226"><g fill="none" fill-rule="nonzero" stroke="none" stroke-width="1" stroke-linecap="butt" stroke-linejoin="miter" stroke-miterlimit="10" stroke-dasharray="" stroke-dashoffset="0" font-family="none" font-weight="none" font-size="none" text-anchor="none" style="mix-blend-mode: normal"><path d="M0,226v-226h226v226z" fill="none"></path><g><path d="M199.70716,127.79396c0.678,-1.39216 1.27916,-2.85664 1.79896,-4.39118c5.95058,-17.5602 -3.04874,-38.59628 -21.99658,-43.6745c-2.04756,-25.72784 -20.12756,-43.37618 -40.54666,-46.38876c-23.37066,-3.4465 -44.77964,11.39944 -51.90316,34.9961c-8.58574,-3.04196 -16.95226,-2.67132 -24.8374,1.93682c-3.57758,1.65432 -6.85006,4.09512 -9.7858,7.30658c-4.30982,4.71436 -7.11222,10.66494 -8.25352,16.9387c-1.69048,0.26668 -3.35158,0.53336 -4.91776,1.09384c-9.1304,3.27474 -14.89114,10.01406 -16.47088,20.16598c-0.9831,6.32122 1.00118,12.62662 2.10858,15.17364c4.3731,10.0683 14.51372,15.7748 24.81706,14.26512c0.51302,-0.07458 1.25882,0.15594 1.69952,0.52658c0.54466,16.0912 8.35748,30.32242 20.07784,38.45164c18.80546,13.04472 43.00102,9.02644 58.26506,-8.86146c6.54044,6.6896 14.32388,9.93948 23.46784,8.75976c9.09198,-1.17294 16.15222,-6.19014 21.30276,-14.34874c2.37978,0.63958 4.63526,1.56166 6.96758,1.81704c9.13492,0.99892 16.55224,-2.6329 21.99432,-10.848c2.08372,-3.14366 4.05218,-7.21844 4.05218,-14.36004c0.00226,-7.3563 -2.91992,-14.06172 -7.83994,-18.55912z" fill="#a2dbfa"></path><path d="M90.89946,157.37058c0,0 23.29834,0 23.43846,0c5.38106,0 9.7406,-4.3618 9.7406,-9.74286c0,-4.69402 -3.31994,-8.6106 -7.7405,-9.53494c0.05198,-0.41132 0.08588,-0.82716 0.08588,-1.25204c0,-5.57316 -4.51774,-10.0909 -10.08864,-10.0909c-3.29056,0 -6.2037,1.582 -8.0456,4.01828c-0.47008,-6.2037 -6.0116,-10.98812 -12.49328,-10.19486c-4.73922,0.58082 -8.66032,4.24428 -9.53268,8.9383c-0.28024,1.50516 -0.25086,2.96738 0.02712,4.3392c-1.27012,-1.36956 -3.08038,-2.23062 -5.09404,-2.23062c-3.68832,0 -6.69638,2.8702 -6.93594,6.4975c-1.67466,-0.37064 -3.49622,-0.34578 -5.41496,0.3729c-3.66572,1.37634 -6.27828,4.82962 -6.4297,8.74168c-0.21696,5.55734 4.22394,10.13158 9.73382,10.13158c0.4181,0 1.88936,0 2.22836,0h20.22926" fill="#fdfcef"></path><path d="M114.33792,158.50058h-23.43846c-0.62376,0 -1.13,-0.50624 -1.13,-1.13c0,-0.62376 0.50624,-1.13 1.13,-1.13h23.43846c4.75052,0 8.61286,-3.86234 8.61286,-8.61286c0,-4.0567 -2.87698,-7.60038 -6.84102,-8.42754c-0.57404,-0.11978 -0.96276,-0.65992 -0.89044,-1.24526c0.0452,-0.36386 0.07684,-0.7345 0.07684,-1.11192c0,-4.94262 -4.01828,-8.9609 -8.9609,-8.9609c-2.82274,0 -5.42626,1.30176 -7.14386,3.5708c-0.28024,0.3729 -0.77518,0.53562 -1.21814,0.40228c-0.452,-0.13334 -0.77292,-0.52884 -0.80908,-0.99666c-0.20566,-2.70748 -1.53002,-5.25224 -3.63634,-6.97888c-2.12892,-1.74698 -4.83188,-2.5086 -7.59134,-2.18316c-4.25784,0.5198 -7.77666,3.8194 -8.55862,8.023c-0.24182,1.31532 -0.23504,2.63064 0.02486,3.90754c0.09944,0.4972 -0.14012,0.99892 -0.59212,1.2317c-0.44522,0.23278 -0.99892,0.1356 -1.3447,-0.2373c-1.11644,-1.20232 -2.6329,-1.86676 -4.26688,-1.86676c-3.05552,0 -5.6048,2.39108 -5.80594,5.44208c-0.0226,0.3277 -0.18532,0.63054 -0.44748,0.82716c-0.26668,0.19888 -0.6102,0.26668 -0.92208,0.20114c-1.65884,-0.36386 -3.21824,-0.25764 -4.77312,0.32996c-3.277,1.22944 -5.56864,4.33468 -5.69746,7.7292c-0.09266,2.36848 0.75936,4.61266 2.39786,6.3167c1.64076,1.70404 3.842,2.64194 6.20596,2.64194h22.45988c0.62376,0 1.13,0.50624 1.13,1.13c0,0.62376 -0.50624,1.13 -1.13,1.13h-22.45988c-2.9832,0 -5.76526,-1.18424 -7.83542,-3.33576c-2.0679,-2.15152 -3.14366,-4.9833 -3.0284,-7.97102c0.16724,-4.29174 3.04648,-8.21284 7.1642,-9.75416c1.5707,-0.59212 3.20242,-0.79552 4.859,-0.61698c0.80682,-3.63182 4.06348,-6.328 7.88514,-6.328c1.3108,0 2.59448,0.32544 3.74256,0.92434c0.0113,-0.70286 0.08136,-1.40798 0.2147,-2.1131c0.95824,-5.15958 5.2771,-9.21176 10.50448,-9.85134c3.39,-0.42262 6.6896,0.53336 9.2999,2.6781c1.96394,1.61138 3.37418,3.80358 4.04766,6.22178c2.02044,-1.75376 4.59006,-2.73008 7.32692,-2.73008c6.18562,0 11.2209,5.03528 11.2209,11.2209c0,0.13334 -0.00226,0.26442 -0.00904,0.39776c4.49514,1.38764 7.66366,5.60706 7.66366,10.38922c-0.00226,5.989 -4.87934,10.86608 -10.87512,10.86608z" fill="#472b29"></path><path d="M118.28388,139.23634c-3.38548,-1.59556 -7.30206,-0.46556 -8.7462,2.52442c-0.17854,0.37064 -0.31188,0.75484 -0.40002,1.14356" fill="#fdfcef"></path><path d="M109.13766,143.46932c-0.04294,0 -0.08362,-0.00452 -0.12656,-0.01356c-0.3051,-0.07006 -0.49494,-0.3729 -0.42488,-0.678c0.09944,-0.43618 0.2486,-0.86106 0.4407,-1.26334c1.57748,-3.26118 5.83984,-4.51548 9.49652,-2.7911c0.2825,0.1356 0.40454,0.47008 0.2712,0.75258c-0.1356,0.28476 -0.4746,0.39776 -0.75258,0.2712c-3.09846,-1.46448 -6.6896,-0.44974 -7.99814,2.25774c-0.15368,0.3277 -0.27572,0.67122 -0.35482,1.02378c-0.06102,0.26442 -0.2938,0.4407 -0.55144,0.4407z" fill="#472b29"></path><path d="M40.75006,109.79532h-22.6678c-0.62376,0 -1.13,-0.50624 -1.13,-1.13c0,-0.62376 0.50624,-1.13 1.13,-1.13h22.6678c0.62376,0 1.13,0.50624 1.13,1.13c0,0.62376 -0.50624,1.13 -1.13,1.13zM47.26112,109.79532h-3.2657c-0.62376,0 -1.13,-0.50624 -1.13,-1.13c0,-0.62376 0.50624,-1.13 1.13,-1.13h3.2657c0.62376,0 1.13,0.50624 1.13,1.13c0,0.62376 -0.50624,1.13 -1.13,1.13zM56.42316,109.79532h-5.75396c-0.62376,0 -1.13,-0.50624 -1.13,-1.13c0,-0.62376 0.50624,-1.13 1.13,-1.13h5.75396c0.62376,0 1.13,0.50624 1.13,1.13c0,0.62376 -0.50398,1.13 -1.13,1.13zM56.42316,114.01022h-21.73216c-0.62376,0 -1.13,-0.50624 -1.13,-1.13c0,-0.62376 0.50624,-1.13 1.13,-1.13h21.73216c0.62376,0 1.13,0.50624 1.13,1.13c0,0.62376 -0.50398,1.13 -1.13,1.13zM30.77894,114.01022h-1.3108c-0.62376,0 -1.13,-0.50624 -1.13,-1.13c0,-0.62376 0.50624,-1.13 1.13,-1.13h1.3108c0.62376,0 1.13,0.50624 1.13,1.13c0,0.62376 -0.50624,1.13 -1.13,1.13zM25.40692,114.01022h-3.29056c-0.62376,0 -1.13,-0.50624 -1.13,-1.13c0,-0.62376 0.50624,-1.13 1.13,-1.13h3.29056c0.62376,0 1.13,0.50624 1.13,1.13c0,0.62376 -0.50624,1.13 -1.13,1.13zM46.05428,105.58042h-11.36328c-0.62376,0 -1.13,-0.50624 -1.13,-1.13c0,-0.62376 0.50624,-1.13 1.13,-1.13h11.36102c0.62376,0 1.13,0.50624 1.13,1.13c0,0.62376 -0.50398,1.13 -1.12774,1.13zM46.05428,101.36552h-2.84082c-0.62376,0 -1.13,-0.50624 -1.13,-1.13c0,-0.62376 0.50624,-1.13 1.13,-1.13h2.84082c0.62376,0 1.13,0.50624 1.13,1.13c0,0.62376 -0.50624,1.13 -1.13,1.13zM38.66634,118.22512h-3.97534c-0.62376,0 -1.13,-0.50624 -1.13,-1.13c0,-0.62376 0.50624,-1.13 1.13,-1.13h3.97534c0.62376,0 1.13,0.50624 1.13,1.13c0,0.62376 -0.50624,1.13 -1.13,1.13zM160.93234,50.4093h-22.6678c-0.62376,0 -1.13,-0.50624 -1.13,-1.13c0,-0.62376 0.50624,-1.13 1.13,-1.13h22.6678c0.62376,0 1.13,0.50624 1.13,1.13c0,0.62376 -0.50624,1.13 -1.13,1.13zM167.4434,50.4093h-3.26796c-0.62376,0 -1.13,-0.50624 -1.13,-1.13c0,-0.62376 0.50624,-1.13 1.13,-1.13h3.26796c0.62376,0 1.13,0.50624 1.13,1.13c0,0.62376 -0.50398,1.13 -1.13,1.13zM176.60544,50.4093h-5.7517c-0.62376,0 -1.13,-0.50624 -1.13,-1.13c0,-0.62376 0.50624,-1.13 1.13,-1.13h5.7517c0.62376,0 1.13,0.50624 1.13,1.13c0,0.62376 -0.50624,1.13 -1.13,1.13zM172.02894,41.98176h-21.73216c-0.62376,0 -1.13,-0.50624 -1.13,-1.13c0,-0.62376 0.50624,-1.13 1.13,-1.13h21.73216c0.62376,0 1.13,0.50624 1.13,1.13c0,0.62376 -0.50624,1.13 -1.13,1.13zM146.38246,41.98176h-1.3108c-0.62376,0 -1.13,-0.50624 -1.13,-1.13c0,-0.62376 0.50624,-1.13 1.13,-1.13h1.3108c0.62376,0 1.13,0.50624 1.13,1.13c0,0.62376 -0.50624,1.13 -1.13,1.13zM141.01044,41.98176h-3.29056c-0.62376,0 -1.13,-0.50624 -1.13,-1.13c0,-0.62376 0.50624,-1.13 1.13,-1.13h3.29056c0.62376,0 1.13,0.50624 1.13,1.13c0,0.62376 -0.50624,1.13 -1.13,1.13zM166.23656,46.1944h-11.36328c-0.62376,0 -1.13,-0.50624 -1.13,-1.13c0,-0.62376 0.50624,-1.13 1.13,-1.13h11.36328c0.62376,0 1.13,0.50624 1.13,1.13c0,0.62376 -0.50398,1.13 -1.13,1.13z" fill="#ffffff"></path><path d="M166.23656,41.98176h-2.84308c-0.62376,0 -1.13,-0.50624 -1.13,-1.13c0,-0.62376 0.50624,-1.13 1.13,-1.13h2.84308c0.62376,0 1.13,0.50624 1.13,1.13c0,0.62376 -0.50398,1.13 -1.13,1.13zM151.58498,46.1944h-3.97534c-0.62376,0 -1.13,-0.50624 -1.13,-1.13c0,-0.62376 0.50624,-1.13 1.13,-1.13h3.97534c0.62376,0 1.13,0.50624 1.13,1.13c0,0.62376 -0.50624,1.13 -1.13,1.13z" fill="#ffffff"></path><path d="M151.07648,120.15742c4.25558,0 7.94842,0 8.0004,0c4.7686,0 8.63546,-3.78324 8.63546,-8.45014c0,-4.07252 -2.94252,-7.4693 -6.8591,-8.2716c0.0452,-0.35708 0.07684,-0.71642 0.07684,-1.0848c0,-4.83414 -4.00472,-8.75298 -8.94282,-8.75298c-2.9154,0 -5.49858,1.37182 -7.1303,3.48718c-0.4181,-5.38106 -5.32908,-9.53268 -11.074,-8.84338c-4.20134,0.50398 -7.67722,3.68154 -8.45014,7.75406c-0.2486,1.30628 -0.22148,2.57414 0.02486,3.7629c-1.12548,-1.1865 -2.73008,-1.93456 -4.51548,-1.93456c-3.26796,0 -5.93702,2.49052 -6.1472,5.63644c-1.48482,-0.32092 -3.09846,-0.30058 -4.79798,0.32318c-3.24988,1.19328 -5.56412,4.18778 -5.69972,7.58456c-0.1921,4.82058 3.74482,8.78914 8.62868,8.78914c0.37064,0 1.67466,0 1.97524,0h17.93084M136.4362,120.15742h0.8136" fill="#fdfcef"></path><path d="M159.07688,121.28742h-8.0004c-0.62376,0 -1.13,-0.50624 -1.13,-1.13c0,-0.62376 0.50624,-1.13 1.13,-1.13h8.0004c4.13806,0 7.5032,-3.28378 7.5032,-7.32014c0,-3.44424 -2.50408,-6.45908 -5.95736,-7.1642c-0.5763,-0.11978 -0.96728,-0.66218 -0.89496,-1.24752c0.03842,-0.30962 0.06554,-0.62376 0.06554,-0.94468c0,-4.2036 -3.50526,-7.62298 -7.81282,-7.62298c-2.46792,0 -4.74148,1.10966 -6.2376,3.04648c-0.28476,0.37064 -0.77518,0.52206 -1.21588,0.39324c-0.44748,-0.1356 -0.7684,-0.52884 -0.8023,-0.9944c-0.17854,-2.3052 -1.2769,-4.39344 -3.0962,-5.88504c-1.86902,-1.53906 -4.25332,-2.21254 -6.71672,-1.92778c-3.71996,0.44522 -6.79582,3.25892 -7.47608,6.84102c-0.21244,1.12096 -0.20566,2.23966 0.02034,3.32672c0.10396,0.49494 -0.1356,0.99666 -0.58308,1.2317c-0.44522,0.23278 -0.99214,0.14238 -1.3447,-0.226c-0.96728,-1.01926 -2.28034,-1.582 -3.6951,-1.582c-2.64194,0 -4.8477,2.01366 -5.01946,4.58102c-0.0226,0.32996 -0.18532,0.63054 -0.44748,0.82716c-0.26216,0.19662 -0.59438,0.2712 -0.91756,0.20114c-1.44866,-0.31188 -2.81144,-0.22148 -4.1697,0.2825c-2.85212,1.04638 -4.8477,3.68606 -4.9607,6.56756c-0.0791,1.9775 0.63732,3.86008 2.0227,5.2997c1.4351,1.4916 3.3787,2.31424 5.47598,2.31424h19.90608c0.62376,0 1.13,0.50624 1.13,1.13c0,0.62376 -0.50624,1.13 -1.13,1.13h-19.90382c-2.6781,0 -5.2658,-1.0961 -7.10544,-3.00806c-1.81478,-1.88936 -2.75494,-4.35954 -2.65324,-6.95628c0.15368,-3.7855 2.74138,-7.24104 6.441,-8.60156c1.3786,-0.50624 2.79562,-0.68704 4.25106,-0.55144c0.77744,-3.15496 3.68154,-5.47824 7.0851,-5.47824c1.11418,0 2.20802,0.25538 3.19564,0.72998c0.02034,-0.54466 0.08136,-1.09158 0.18532,-1.64076c0.86106,-4.5426 4.73922,-8.10436 9.42646,-8.66484c3.07812,-0.37968 6.0681,0.49268 8.42076,2.42046c1.68822,1.38538 2.88828,3.18434 3.49396,5.20252c1.78766,-1.46222 4.03636,-2.27356 6.42518,-2.27356c5.55508,0 10.07282,4.43412 10.07282,9.88298c0,0.07684 -0.00226,0.15142 -0.00452,0.23052c3.9889,1.2543 6.78904,4.94488 6.78904,9.12588c0,5.2884 -4.38214,9.58466 -9.76546,9.58466zM137.2498,121.28742h-0.81134c-0.62376,0 -1.13,-0.50624 -1.13,-1.13c0,-0.62376 0.50624,-1.13 1.13,-1.13h0.81134c0.62376,0 1.13,0.50624 1.13,1.13c0,0.62376 -0.50624,1.13 -1.13,1.13z" fill="#472b29"></path><path d="M155.2168,108.1749c-0.04068,0 -0.08136,-0.00452 -0.1243,-0.01356c-0.3051,-0.0678 -0.4972,-0.37064 -0.42714,-0.67574c0.08136,-0.36838 0.21244,-0.73224 0.38194,-1.08254c1.36956,-2.76624 5.1415,-3.79454 8.41398,-2.27356c0.2825,0.13108 0.4068,0.46556 0.27346,0.75032c-0.13108,0.2825 -0.46556,0.40454 -0.75032,0.27346c-2.71426,-1.2543 -5.8195,-0.4746 -6.92238,1.74924c-0.13108,0.26668 -0.23052,0.54466 -0.29154,0.82942c-0.06102,0.26442 -0.2938,0.44296 -0.5537,0.44296zM143.55972,121.28742h-2.50182c-0.62376,0 -1.13,-0.50624 -1.13,-1.13c0,-0.62376 0.50624,-1.13 1.13,-1.13h2.50182c0.62376,0 1.13,0.50624 1.13,1.13c0,0.62376 -0.50624,1.13 -1.13,1.13z" fill="#472b29"></path><path d="M145.77,82.32276v-6.62632c0,-0.93112 0.76388,-1.695 1.695,-1.695h0.90174c0.93112,0 1.695,0.76388 1.695,1.695v6.62632c0,0.93112 -0.76388,1.695 -1.695,1.695h-0.90174c-0.93112,0 -1.695,-0.76162 -1.695,-1.695z" fill="#cbc9bc"></path><path d="M148.369,84.86526h-0.90174c-1.4012,0 -2.5425,-1.1413 -2.5425,-2.5425v-6.62632c0,-1.4012 1.1413,-2.5425 2.5425,-2.5425h0.90174c1.4012,0 2.5425,1.1413 2.5425,2.5425v6.62632c0,1.4012 -1.1413,2.5425 -2.5425,2.5425zM147.46726,74.8512c-0.46782,0 -0.8475,0.37968 -0.8475,0.8475v6.62632c0,0.46782 0.37968,0.8475 0.8475,0.8475h0.90174c0.46782,0 0.8475,-0.37968 0.8475,-0.8475v-6.62632c0,-0.45878 -0.38872,-0.8475 -0.8475,-0.8475z" fill="#472b29"></path><path d="M135.18642,164.85796h-33.20166c-6.215,0 -11.3,-5.085 -11.3,-11.3v-78.987c0,-6.215 5.085,-11.3 11.3,-11.3h33.20166c6.215,0 11.3,5.085 11.3,11.3v78.987c0,6.215 -5.085,11.3 -11.3,11.3z" fill="#e1e0d8"></path><path d="M135.18642,166.44222h-33.1994c-7.10318,0 -12.882,-5.78108 -12.882,-12.882v-78.987c0,-7.10318 5.78108,-12.882 12.882,-12.882h33.1994c7.10318,0 12.882,5.78108 12.882,12.882v78.987c0,7.10092 -5.77882,12.882 -12.882,12.882zM101.98702,64.85522c-5.35846,0 -9.718,4.35954 -9.718,9.718v78.987c0,5.35846 4.35954,9.718 9.718,9.718h33.1994c5.35846,0 9.718,-4.35954 9.718,-9.718v-78.987c0,-5.35846 -4.35954,-9.718 -9.718,-9.718z" fill="#472b29"></path><path d="M140.7641,89.02592v58.66282h-42.92418v-12.87748v-14.30806v-44.35476h37.1996h5.72458z" fill="#c5def0"></path><path d="M97.1235,120.63428c-0.46782,0 -0.8475,-0.37968 -0.8475,-0.8475v-44.35476c0,-0.46782 0.37968,-0.8475 0.8475,-0.8475h37.1996c0.46782,0 0.8475,0.37968 0.8475,0.8475c0,0.46782 -0.37968,0.8475 -0.8475,0.8475h-36.3521v43.50726c0,0.46782 -0.37968,0.8475 -0.8475,0.8475zM140.04768,147.82208h-42.92418c-0.46782,0 -0.8475,-0.37968 -0.8475,-0.8475v-12.87748c0,-0.46782 0.37968,-0.8475 0.8475,-0.8475c0.46782,0 0.8475,0.37968 0.8475,0.8475v12.02998h41.22918v-57.81532c0,-0.46782 0.37968,-0.8475 0.8475,-0.8475c0.46782,0 0.8475,0.37968 0.8475,0.8475v58.66282c0,0.46782 -0.37968,0.8475 -0.8475,0.8475z" fill="#472b29"></path><path d="M117.8703,151.26632c-1.97584,0 -3.57758,1.60174 -3.57758,3.57758c0,1.97584 1.60174,3.57758 3.57758,3.57758c1.97584,0 3.57758,-1.60174 3.57758,-3.57758c0,-1.97584 -1.60174,-3.57758 -3.57758,-3.57758z" fill="#cbc9bc"></path><path d="M117.8703,159.26672c-2.4408,0 -4.42508,-1.98428 -4.42508,-4.42282c0,-2.4408 1.98428,-4.42508 4.42508,-4.42508c2.4408,0 4.42508,1.98428 4.42508,4.42508c0,2.43854 -1.98428,4.42282 -4.42508,4.42282zM117.8703,152.11382c-1.50516,0 -2.73008,1.22492 -2.73008,2.73008c0,1.50516 1.22492,2.72782 2.73008,2.72782c1.50516,0 2.73008,-1.22266 2.73008,-2.72782c0,-1.50516 -1.22492,-2.73008 -2.73008,-2.73008zM124.30904,70.42612h-11.4469c-0.39324,0 -0.71642,-0.32092 -0.71642,-0.71642v0c0,-0.39324 0.32092,-0.71642 0.71642,-0.71642h11.4469c0.39324,0 0.71642,0.32092 0.71642,0.71642v0c-0.00226,0.39324 -0.32318,0.71642 -0.71642,0.71642zM140.04768,80.57352c-0.46782,0 -0.8475,-0.37968 -0.8475,-0.8475v-4.29174c0,-0.46782 0.37968,-0.8475 0.8475,-0.8475c0.46782,0 0.8475,0.37968 0.8475,0.8475v4.29174c0,0.46782 -0.37968,0.8475 -0.8475,0.8475zM140.05672,83.43694c-0.113,0 -0.226,-0.02486 -0.33674,-0.0678c-0.0904,-0.04746 -0.1808,-0.0904 -0.2712,-0.1808c-0.1582,-0.1582 -0.2486,-0.3842 -0.2486,-0.61246c0,-0.2034 0.0904,-0.42714 0.2486,-0.5876c0.226,-0.24634 0.6102,-0.3164 0.9266,-0.1808c0.0904,0.04746 0.2034,0.0904 0.2712,0.1808c0.15594,0.1582 0.24634,0.3842 0.24634,0.5876c0,0.2486 -0.0904,0.452 -0.24634,0.61246c-0.0904,0.0678 -0.1808,0.1356 -0.2712,0.1808c-0.11526,0.0452 -0.22826,0.0678 -0.31866,0.0678zM97.1235,132.08344c-0.46782,0 -0.8475,-0.37968 -0.8475,-0.8475v-2.86342c0,-0.46782 0.37968,-0.8475 0.8475,-0.8475c0.46782,0 0.8475,0.37968 0.8475,0.8475v2.86342c0,0.46782 -0.37968,0.8475 -0.8475,0.8475z" fill="#472b29"></path><path d="M101.88758,75.43428h-4.69628l-2.39786,12.26276l-0.0226,0.00452c0,0.00452 0,-0.00452 0,0v0v0c-0.01356,0.28476 -0.0226,0.5876 -0.0226,0.9266v0c0,1.7402 1.4125,3.164 3.1414,3.164h0.54466c1.72664,0 3.45328,-1.4238 3.45328,-3.164v0c0,-0.33448 0.0113,-0.64184 0,-0.9266v0z" fill="#fdfcef"></path><path d="M98.43204,92.6374h-0.5424c-2.19898,0 -3.9889,-1.80122 -3.9889,-4.0115c0,-0.34804 0.00904,-0.6667 0.0226,-0.96502c0.00678,-0.10622 0.03164,-0.21018 0.07232,-0.30284l2.36396,-12.08874c0.07684,-0.39776 0.42488,-0.68478 0.83168,-0.68478h4.69402c0.46782,0 0.8475,0.37968 0.8475,0.8475v12.26728c0.00904,0.16272 0.00678,0.37742 0.00226,0.60568l-0.00226,0.32092c0.00226,2.1357 -2.00914,4.0115 -4.30078,4.0115zM95.6093,87.92078c-0.00904,0.22148 -0.01356,0.452 -0.01356,0.70512c0,1.2769 1.0283,2.3165 2.2939,2.3165h0.5424c1.34018,0 2.60578,-1.12548 2.60578,-2.3165l0.00226,-0.34352c0.00452,-0.18984 0.00678,-0.37064 -0.00226,-0.54014v-11.4582h-3.15044l-2.26452,11.57798c-0.00226,0.01582 -0.00678,0.03842 -0.01356,0.05876z" fill="#472b29"></path><path d="M108.6156,75.43428h-6.73028v12.05032h0.0226c-0.01356,0.29832 -0.0226,0.6215 -0.0226,0.97406c0,1.8306 1.48708,3.32898 3.30638,3.32898h0.43392c1.75376,0 2.98998,-1.4238 2.98998,-3.164c0,-0.33448 0.0113,-0.64184 0,-0.9266v0z" fill="#c0d078"></path><path d="M105.62562,92.6374h-0.43166c-2.29164,0 -4.15388,-1.87354 -4.15388,-4.17874c0,-0.29154 0.00678,-0.56048 0.01582,-0.8136c-0.00904,-0.05198 -0.01582,-0.10622 -0.01582,-0.16046v-12.05032c0,-0.46782 0.37968,-0.8475 0.8475,-0.8475h6.73028c0.46782,0 0.8475,0.37968 0.8475,0.8475v12.26728c0.00904,0.16272 0.00678,0.37742 0.00226,0.60568l-0.00226,0.32092c-0.00226,2.24418 -1.68822,4.00924 -3.83974,4.00924zM102.73508,87.29476c0.02034,0.07458 0.02712,0.15142 0.0226,0.23278c-0.01356,0.28702 -0.0226,0.59438 -0.0226,0.93112c0,1.3673 1.10288,2.48374 2.45888,2.48374h0.43166c1.22266,0 2.14248,-0.9944 2.14248,-2.3165l0.00226,-0.34352c0.00452,-0.18984 0.00678,-0.37064 -0.00226,-0.54014v-11.4582h-5.03528v11.01072z" fill="#472b29"></path><path d="M115.34588,75.43428h-6.73028v12.05032h0.0226c-0.01356,0.29832 -0.0226,0.6215 -0.0226,0.97406c0,1.8306 1.48708,3.32898 3.30638,3.32898h0.43392c1.75376,0 2.98998,-1.4238 2.98998,-3.164c0,-0.33448 0.0113,-0.64184 0,-0.9266v0z" fill="#fdfcef"></path><path d="M112.35364,92.6374h-0.43166c-2.29164,0 -4.15388,-1.87354 -4.15388,-4.17874c0,-0.29154 0.00678,-0.56048 0.01582,-0.8136c-0.00904,-0.05198 -0.01582,-0.10622 -0.01582,-0.16046v-12.05032c0,-0.46782 0.37968,-0.8475 0.8475,-0.8475h6.73028c0.46782,0 0.8475,0.37968 0.8475,0.8475v12.26728c0.00904,0.16272 0.00678,0.37742 0.00226,0.60568l-0.00226,0.32092c0,2.24418 -1.68596,4.00924 -3.83974,4.00924zM109.4631,87.29476c0.02034,0.07458 0.02712,0.15142 0.0226,0.23278c-0.01356,0.28702 -0.0226,0.59438 -0.0226,0.93112c0,1.3673 1.10288,2.48374 2.45888,2.48374h0.43166c1.22266,0 2.14248,-0.9944 2.14248,-2.3165l0.00226,-0.34352c0.00452,-0.18984 0.00678,-0.37064 -0.00226,-0.54014v-11.4582h-5.03528v11.01072z" fill="#472b29"></path><path d="M122.08068,75.43428h-6.73028v12.05032h0.0226c-0.01356,0.29832 -0.0226,0.6215 -0.0226,0.97406c0,1.8306 1.48708,3.32898 3.30638,3.32898h0.43392c1.75376,0 2.98998,-1.4464 2.98998,-3.1866c0,-0.33448 0.0113,-0.61924 0,-0.904v0z" fill="#c0d078"></path><path d="M119.0907,92.6374h-0.43166c-2.29164,0 -4.15388,-1.87354 -4.15388,-4.17874c0,-0.29154 0.00678,-0.56274 0.01582,-0.81812c-0.0113,-0.04972 -0.01582,-0.10396 -0.01582,-0.15594v-12.05032c0,-0.46782 0.37968,-0.8475 0.8475,-0.8475h6.73028c0.46782,0 0.8475,0.37968 0.8475,0.8475v12.26728c0.00678,0.16724 0.00452,0.36612 0.00226,0.58308l-0.00226,0.32092c-0.00226,2.25774 -1.68822,4.03184 -3.83974,4.03184zM116.20016,87.30154c0.01808,0.07006 0.02486,0.14464 0.0226,0.21922c-0.01356,0.28928 -0.0226,0.5989 -0.0226,0.9379c0,1.3673 1.10288,2.48374 2.45888,2.48374h0.43166c1.22266,0 2.14248,-1.0057 2.14248,-2.3391l0.00226,-0.34126c0.00226,-0.18306 0.00452,-0.35482 -0.00226,-0.52658v-11.45142h-5.03528v11.0175z" fill="#472b29"></path><path d="M128.8087,75.43428h-6.73028v12.05032h0.00904c-0.00452,0.2034 -0.00904,0.41132 -0.00904,0.63506c0,2.01818 1.48934,3.66798 3.3109,3.66798h0.43392c1.75602,0 2.98998,-1.60912 2.98998,-3.5256c0,-0.21244 0,-0.36838 -0.00226,-0.56274v0v-12.26502z" fill="#fdfcef"></path><path d="M125.82324,92.6374h-0.43392c-2.29164,0 -4.15614,-2.02496 -4.15614,-4.51774l0.00678,-0.53788c-0.00452,-0.03164 -0.00678,-0.06328 -0.00678,-0.09718v-12.05032c0,-0.46782 0.37968,-0.8475 0.8475,-0.8475h6.73028c0.46782,0 0.8475,0.37968 0.8475,0.8475l0.00226,12.67408c0,2.60578 -1.6837,4.52904 -3.83748,4.52904zM122.92818,87.37838c0.00452,0.04068 0.00678,0.08136 0.00678,0.12204l-0.00678,0.61698c0,1.55488 1.10288,2.82274 2.46114,2.82274h0.43392c1.2204,0 2.14022,-1.1526 2.14022,-2.68036l-0.00226,-11.98252h-5.03528v11.10112z" fill="#472b29"></path><path d="M135.53898,75.43428h-6.73028v12.05032h0.0226c-0.01356,0.29832 -0.0226,0.6215 -0.0226,0.97406c0,1.8306 1.48708,3.32898 3.30638,3.32898h0.43392c1.75376,0 2.98998,-1.4238 2.98998,-3.164c0,-0.33448 0.0113,-0.64184 0,-0.9266v0z" fill="#c0d078"></path><path d="M132.549,92.6374h-0.43166c-2.29164,0 -4.15388,-1.87354 -4.15388,-4.17874c0,-0.29154 0.00678,-0.56274 0.01582,-0.81812c-0.0113,-0.04972 -0.01582,-0.10396 -0.01582,-0.15594v-12.05032c0,-0.46782 0.37968,-0.8475 0.8475,-0.8475h6.73028c0.46782,0 0.8475,0.37968 0.8475,0.8475v12.26728c0.00678,0.16724 0.00452,0.37968 0.00226,0.60342l-0.00226,0.32318c-0.00226,2.24418 -1.68822,4.00924 -3.83974,4.00924zM129.65846,87.30154c0.01808,0.07006 0.02486,0.14464 0.0226,0.21922c-0.01356,0.28928 -0.0226,0.5989 -0.0226,0.9379c0,1.3673 1.10288,2.48374 2.45888,2.48374h0.43166c1.22266,0 2.14248,-0.9944 2.14248,-2.3165l0.00226,-0.34126c0.00226,-0.19436 0.00452,-0.37516 -0.00226,-0.54918v-11.45142h-5.03528v11.0175z" fill="#472b29"></path><path d="M142.34384,87.6993v0l-2.14474,-12.26502h-4.66012v12.05032h0.0226c-0.01356,0.29832 -0.0226,0.6215 -0.0226,0.97406v0c0,1.8306 1.48708,3.32898 3.30638,3.32898h0.37968c1.72664,0 3.1414,-1.4238 3.1414,-3.164v0c-0.00226,-0.33448 -0.00904,-0.63958 -0.0226,-0.92434z" fill="#fdfcef"></path><path d="M139.22278,92.6374h-0.37742c-2.29164,0 -4.15388,-1.87354 -4.15388,-4.17874c0,-0.29154 0.00678,-0.56274 0.01582,-0.81812c-0.0113,-0.04972 -0.01582,-0.10396 -0.01582,-0.15594v-12.05032c0,-0.46782 0.37968,-0.8475 0.8475,-0.8475h4.66012c0.41358,0 0.76388,0.29606 0.83394,0.70286l2.14474,12.26728c0.00678,0.03616 0.0113,0.07006 0.01356,0.10622c0.01356,0.29832 0.02034,0.61472 0.02034,0.96502c0,2.20802 -1.78992,4.00924 -3.9889,4.00924zM136.38648,87.30154c0.01808,0.07006 0.02486,0.14464 0.0226,0.21922c-0.01356,0.28928 -0.0226,0.5989 -0.0226,0.9379c0,1.3673 1.10288,2.48374 2.45888,2.48374h0.37742c1.2656,0 2.2939,-1.0396 2.2939,-2.3165c0,-0.30058 -0.00452,-0.5763 -0.01808,-0.83168l-2.01366,-11.51244h-3.09846z" fill="#472b29"></path><path d="M142.36418,88.9084h-47.20688c-0.31188,0 -0.565,-0.25312 -0.565,-0.565c0,-0.31188 0.25312,-0.565 0.565,-0.565h47.20688c0.31188,0 0.565,0.25312 0.565,0.565c0,0.31188 -0.25538,0.565 -0.565,0.565z" fill="#472b29"></path><path d="M101.93052,98.92698h33.57682v9.58466h-33.57682z" fill="#fdfcee"></path><path d="M135.50734,109.24614h-33.57682c-0.4068,0 -0.7345,-0.32996 -0.7345,-0.7345v-9.5824c0,-0.4068 0.32996,-0.7345 0.7345,-0.7345h33.57456c0.4068,0 0.7345,0.32996 0.7345,0.7345v9.5824c0.00226,0.4068 -0.3277,0.7345 -0.73224,0.7345zM102.66502,107.77714h32.10556v-8.1134h-32.10556z" fill="#472b29"></path><path d="M101.93052,112.60676h33.57682v9.58466h-33.57682z" fill="#fdfcee"></path><path d="M135.50734,122.92592h-33.57682c-0.4068,0 -0.7345,-0.32996 -0.7345,-0.7345v-9.58466c0,-0.4068 0.32996,-0.7345 0.7345,-0.7345h33.57456c0.4068,0 0.7345,0.32996 0.7345,0.7345v9.58466c0.00226,0.40454 -0.3277,0.7345 -0.73224,0.7345zM102.66502,121.45692h32.10556v-8.11566h-32.10556z" fill="#472b29"></path><path d="M111.6666,115.82952c0.0452,0.02034 0.09944,0.0565 0.1582,0.10622l0.00904,0.0226c0.0452,0.0565 0.08588,0.11978 0.11978,0.18984c0.0339,0.07232 0.04972,0.13786 0.04972,0.19662c0,0.1017 -0.0452,0.1921 -0.13786,0.27346l-1.11192,0.7458l1.11192,0.73676l-0.02938,-0.0226c0.11978,0.06102 0.17854,0.14916 0.17854,0.26668c0,0.04972 -0.02034,0.10848 -0.0565,0.17402c-0.03616,0.06554 -0.07684,0.12204 -0.1243,0.16724l-0.00904,0.04746c-0.05876,0.04972 -0.113,0.08362 -0.1582,0.09944c-0.0452,0.01582 -0.09944,0.0226 -0.1582,0.0226c-0.12656,0 -0.21922,-0.0339 -0.27798,-0.09944l-0.6554,-0.42488v0.79778c0,0.0565 -0.02034,0.10848 -0.05876,0.15594c-0.04068,0.04746 -0.0904,0.08814 -0.14916,0.12204c-0.05876,0.03164 -0.12656,0.0565 -0.19888,0.07458c-0.07232,0.01808 -0.14238,0.02712 -0.20792,0.02712h-0.04068c-0.1582,0 -0.26216,-0.03164 -0.31188,-0.0904c-0.04972,-0.06102 -0.08136,-0.1356 -0.09492,-0.22148v-0.82942l-0.63506,0.4181c-0.09266,0.07006 -0.18984,0.10622 -0.28928,0.10622c-0.05198,0 -0.11074,-0.0113 -0.17402,-0.0339c-0.06328,-0.0226 -0.113,-0.06328 -0.15368,-0.11752l-0.00678,-0.03164c-0.04068,-0.0452 -0.07458,-0.10622 -0.10396,-0.18306c-0.02938,-0.07684 -0.0452,-0.14012 -0.0452,-0.19662c0,-0.10622 0.04294,-0.1921 0.12882,-0.25764l1.09158,-0.72094l-1.09158,-0.72998c-0.08588,-0.07006 -0.12882,-0.15368 -0.12882,-0.25086c0,-0.12656 0.05876,-0.2486 0.17854,-0.36386l0.02938,-0.03164c0.0452,-0.04068 0.0904,-0.0678 0.1356,-0.08362c0.04294,-0.01582 0.0904,-0.0226 0.14238,-0.0226c0.0452,0 0.09492,0.00678 0.14464,0.02034c0.04972,0.0113 0.09718,0.03616 0.14464,0.07232l0.6554,0.43392v-0.73676c0,-0.11074 0.06554,-0.20114 0.2034,-0.26668c0.1356,-0.06554 0.27572,-0.09944 0.42262,-0.09944h0.02938c0.15368,0 0.25312,0.02712 0.30284,0.08362c0.04972,0.0565 0.08136,0.12656 0.09492,0.21244l-0.00904,0.73676l0.6554,-0.43392l-0.02034,0.01582c0.09266,-0.07006 0.1921,-0.10622 0.29832,-0.10622c0.05424,-0.00226 0.10848,0.00904 0.15368,0.02938zM117.4409,115.82952c0.0452,0.02034 0.09944,0.0565 0.1582,0.10622l0.00904,0.0226c0.0452,0.0565 0.08588,0.11978 0.11978,0.18984c0.0339,0.07232 0.04972,0.13786 0.04972,0.19662c0,0.1017 -0.0452,0.1921 -0.13786,0.27346l-1.11192,0.7458l1.11192,0.73676l-0.02938,-0.0226c0.11978,0.06102 0.17854,0.14916 0.17854,0.26668c0,0.04972 -0.02034,0.10848 -0.0565,0.17402c-0.03616,0.06554 -0.07684,0.12204 -0.1243,0.16724l-0.00904,0.04746c-0.05876,0.04972 -0.113,0.08362 -0.1582,0.09944c-0.0452,0.01582 -0.09944,0.0226 -0.1582,0.0226c-0.12656,0 -0.21922,-0.0339 -0.27798,-0.09944l-0.6554,-0.42488v0.79778c0,0.0565 -0.02034,0.10848 -0.05876,0.15594c-0.04068,0.04746 -0.0904,0.08814 -0.14916,0.12204c-0.05876,0.03164 -0.12656,0.0565 -0.19888,0.07458c-0.07232,0.01808 -0.14238,0.02712 -0.20792,0.02712h-0.04068c-0.1582,0 -0.26216,-0.03164 -0.31188,-0.0904c-0.04972,-0.06102 -0.08136,-0.1356 -0.09492,-0.22148v-0.82942l-0.63732,0.4181c-0.09266,0.07006 -0.18984,0.10622 -0.28928,0.10622c-0.05198,0 -0.11074,-0.0113 -0.17402,-0.0339c-0.06328,-0.0226 -0.113,-0.06328 -0.15368,-0.11752l-0.00904,-0.03164c-0.04068,-0.0452 -0.07458,-0.10622 -0.10396,-0.18306c-0.02938,-0.07684 -0.0452,-0.14012 -0.0452,-0.19662c0,-0.10622 0.04294,-0.1921 0.12882,-0.25764l1.09158,-0.72094l-1.09158,-0.72998c-0.08588,-0.07006 -0.12882,-0.15368 -0.12882,-0.25086c0,-0.12656 0.05876,-0.2486 0.17854,-0.36386l0.02938,-0.03164c0.0452,-0.04068 0.0904,-0.0678 0.1356,-0.08362c0.04294,-0.01582 0.0904,-0.0226 0.14238,-0.0226c0.0452,0 0.09492,0.00678 0.14464,0.02034c0.04972,0.0113 0.09718,0.03616 0.14464,0.07232l0.6554,0.43392v-0.73676c0,-0.11074 0.06554,-0.20114 0.2034,-0.26668c0.13786,-0.06554 0.27572,-0.09944 0.42262,-0.09944h0.02938c0.15368,0 0.25312,0.02712 0.30284,0.08362c0.04972,0.0565 0.08136,0.12656 0.09492,0.21244l-0.00904,0.73676l0.6554,-0.43392l-0.02034,0.01582c0.09266,-0.07006 0.1921,-0.10622 0.29832,-0.10622c0.05876,-0.00226 0.11074,0.00904 0.1582,0.02938zM123.21294,115.82952c0.0452,0.02034 0.09944,0.0565 0.1582,0.10622l0.00904,0.0226c0.0452,0.0565 0.08588,0.11978 0.11978,0.18984c0.0339,0.07232 0.04972,0.13786 0.04972,0.19662c0,0.1017 -0.0452,0.1921 -0.13786,0.27346l-1.11192,0.7458l1.11192,0.73676l-0.02938,-0.0226c0.11978,0.06102 0.17854,0.14916 0.17854,0.26668c0,0.04972 -0.02034,0.10848 -0.0565,0.17402c-0.03616,0.06554 -0.07684,0.12204 -0.1243,0.16724l-0.00904,0.04746c-0.05876,0.04972 -0.113,0.08362 -0.1582,0.09944c-0.0452,0.01582 -0.09944,0.0226 -0.1582,0.0226c-0.12656,0 -0.21922,-0.0339 -0.27798,-0.09944l-0.6554,-0.42488v0.79778c0,0.0565 -0.02034,0.10848 -0.05876,0.15594c-0.04068,0.04746 -0.0904,0.08814 -0.14916,0.12204c-0.05876,0.03164 -0.12656,0.0565 -0.19888,0.07458c-0.07232,0.01808 -0.14238,0.02712 -0.20792,0.02712h-0.04068c-0.1582,0 -0.26216,-0.03164 -0.31188,-0.0904c-0.04972,-0.06102 -0.08136,-0.1356 -0.09492,-0.22148v-0.82942l-0.63506,0.4181c-0.09266,0.07006 -0.18984,0.10622 -0.28928,0.10622c-0.05198,0 -0.11074,-0.0113 -0.17402,-0.0339c-0.06328,-0.0226 -0.113,-0.06328 -0.15368,-0.11752l-0.00904,-0.03164c-0.04068,-0.0452 -0.07458,-0.10622 -0.10396,-0.18306c-0.02938,-0.07684 -0.0452,-0.14012 -0.0452,-0.19662c0,-0.10622 0.04294,-0.1921 0.12882,-0.25764l1.09158,-0.72094l-1.09158,-0.72998c-0.08588,-0.07006 -0.12882,-0.15368 -0.12882,-0.25086c0,-0.12656 0.05876,-0.2486 0.17854,-0.36386l0.02938,-0.03164c0.0452,-0.04068 0.0904,-0.0678 0.1356,-0.08362c0.04294,-0.01582 0.0904,-0.0226 0.14238,-0.0226c0.0452,0 0.09492,0.00678 0.14464,0.02034c0.04972,0.0113 0.09718,0.03616 0.14464,0.07232l0.6554,0.43392v-0.73676c0,-0.11074 0.06554,-0.20114 0.2034,-0.26668c0.13786,-0.06554 0.27572,-0.09944 0.42262,-0.09944h0.02938c0.15368,0 0.25312,0.02712 0.30284,0.08362c0.04972,0.0565 0.08136,0.12656 0.09492,0.21244l-0.00904,0.73676l0.6554,-0.43392l-0.02034,0.01582c0.09266,-0.07006 0.1921,-0.10622 0.29832,-0.10622c0.0565,-0.00226 0.11074,0.00904 0.15594,0.02938zM128.98498,115.82952c0.0452,0.02034 0.09944,0.0565 0.1582,0.10622l0.00904,0.0226c0.0452,0.0565 0.08588,0.11978 0.11978,0.18984c0.0339,0.07232 0.04972,0.13786 0.04972,0.19662c0,0.1017 -0.0452,0.1921 -0.13786,0.27346l-1.11192,0.7458l1.11192,0.73676l-0.02938,-0.0226c0.11978,0.06102 0.17854,0.14916 0.17854,0.26668c0,0.04972 -0.02034,0.10848 -0.0565,0.17402c-0.03616,0.06554 -0.07684,0.12204 -0.1243,0.16724l-0.00904,0.04746c-0.05876,0.04972 -0.113,0.08362 -0.1582,0.09944c-0.0452,0.01582 -0.09944,0.0226 -0.1582,0.0226c-0.12656,0 -0.21922,-0.0339 -0.27798,-0.09944l-0.6554,-0.42488v0.79778c0,0.0565 -0.02034,0.10848 -0.05876,0.15594c-0.04068,0.04746 -0.0904,0.08814 -0.14916,0.12204c-0.05876,0.03164 -0.12656,0.0565 -0.19888,0.07458c-0.07232,0.01808 -0.14238,0.02712 -0.20792,0.02712h-0.04068c-0.1582,0 -0.26216,-0.03164 -0.31188,-0.0904c-0.04972,-0.06102 -0.08136,-0.1356 -0.09492,-0.22148v-0.82942l-0.63506,0.4181c-0.09266,0.07006 -0.18984,0.10622 -0.28928,0.10622c-0.05198,0 -0.11074,-0.0113 -0.17402,-0.0339c-0.06328,-0.0226 -0.113,-0.06328 -0.15368,-0.11752l-0.00904,-0.03164c-0.04068,-0.0452 -0.07458,-0.10622 -0.10396,-0.18306c-0.02938,-0.07684 -0.0452,-0.14012 -0.0452,-0.19662c0,-0.10622 0.04294,-0.1921 0.12882,-0.25764l1.09158,-0.72094l-1.09158,-0.72998c-0.08588,-0.07006 -0.12882,-0.15368 -0.12882,-0.25086c0,-0.12656 0.05876,-0.2486 0.17854,-0.36386l0.02938,-0.03164c0.0452,-0.04068 0.0904,-0.0678 0.1356,-0.08362c0.04294,-0.01582 0.0904,-0.0226 0.14238,-0.0226c0.0452,0 0.09492,0.00678 0.14464,0.02034c0.04972,0.0113 0.09718,0.03616 0.14464,0.07232l0.6554,0.43392v-0.73676c0,-0.11074 0.06554,-0.20114 0.2034,-0.26668c0.1356,-0.06554 0.27572,-0.09944 0.42262,-0.09944h0.02938c0.15368,0 0.25312,0.02712 0.30284,0.08362c0.04972,0.0565 0.08136,0.12656 0.09492,0.21244l-0.0113,0.7345l0.6554,-0.43392l-0.02034,0.01582c0.09266,-0.07006 0.1921,-0.10622 0.29832,-0.10622c0.05876,0 0.113,0.0113 0.1582,0.03164z" fill="#472b29"></path><path d="M130.91728,137.62948h-24.39896c-2.52442,0 -4.5878,-2.06564 -4.5878,-4.5878v-0.10396c0,-2.52442 2.06564,-4.5878 4.5878,-4.5878h24.39896c2.52442,0 4.5878,2.06564 4.5878,4.5878v0.10396c0.00226,2.52442 -2.06338,4.5878 -4.5878,4.5878z" fill="#88ae45"></path><path d="M130.91728,138.30974h-24.39896c-2.9041,0 -5.2658,-2.3617 -5.2658,-5.2658c0,-3.01032 2.3617,-5.37202 5.2658,-5.37202h24.39896c2.9041,0 5.2658,2.3617 5.2658,5.2658c0,3.01032 -2.3617,5.37202 -5.2658,5.37202zM106.51832,129.02566c-2.15604,0 -3.9098,1.75376 -3.9098,3.9098c0,2.26226 1.75376,4.01602 3.9098,4.01602h24.39896c2.15604,0 3.9098,-1.75376 3.9098,-3.9098c0,-2.26226 -1.75376,-4.01602 -3.9098,-4.01602z" fill="#472b29"></path><path d="M168.12592,141.86246v-11.52374c0,-6.3167 -6.05906,-11.3226 -12.2605,-11.3226c-6.215,0 -12.71928,5.1189 -12.71928,11.4356v11.40848h4.407v-11.26384c0,-3.74934 4.30756,-6.77548 7.88514,-6.77548c3.5708,0 7.54162,2.96512 7.54162,6.70768v11.3339z" fill="#c0d078"></path><path d="M168.97342,142.70996h-6.8365v-12.1814c0,-3.2996 -3.59792,-5.86018 -6.69412,-5.86018c-3.16852,0 -7.03764,2.7346 -7.03764,5.92798v12.11134h-6.102v-12.25598c0,-7.03086 7.16194,-12.28536 13.56452,-12.28536c6.9834,0 13.108,5.68842 13.108,12.1701v12.3735zM163.83192,141.01496h3.4465v-10.67624c0,-5.57994 -5.33134,-10.4751 -11.413,-10.4751c-5.48954,0 -11.86952,4.62622 -11.86952,10.59036v10.56098h2.712v-10.41634c0,-4.29174 4.69402,-7.62298 8.73264,-7.62298c3.95952,0 8.38912,3.2318 8.38912,7.55518v10.48414z" fill="#472b29"></path><path d="M168.12592,142.99246c-0.62376,0 -1.13,-0.50624 -1.13,-1.13v-11.52374c0,-5.42852 -5.20252,-10.1926 -11.1305,-10.1926c-5.35846,0 -11.58702,4.50192 -11.58702,10.30786v11.40848c0,0.62376 -0.50624,1.13 -1.13,1.13c-0.62376,0 -1.13,-0.50624 -1.13,-1.13v-11.40848c0,-7.19358 7.30884,-12.56786 13.84702,-12.56786c7.13256,0 13.3905,5.81724 13.3905,12.4526v11.52374c0,0.62376 -0.50398,1.13 -1.13,1.13z" fill="#472b29"></path><path d="M164.54156,169.04574h-18.54104c-6.215,0 -11.3,-5.085 -11.3,-11.3v-15.29568c0,-2.34362 1.91648,-4.2601 4.2601,-4.2601h32.62084c2.34362,0 4.2601,1.91648 4.2601,4.2601v15.29568c0,6.215 -5.085,11.3 -11.3,11.3z" fill="#88ae45"></path><path d="M164.5393,170.17348h-18.53878c-6.85232,0 -12.43,-5.57768 -12.43,-12.43v-15.29568c0,-2.9719 2.41594,-5.3901 5.3901,-5.3901h32.61858c2.9719,0 5.3901,2.41594 5.3901,5.3901v15.29568c0,6.85232 -5.57768,12.43 -12.43,12.43zM138.96062,139.31996c-1.72664,0 -3.1301,1.40346 -3.1301,3.1301v15.29568c0,5.60706 4.56294,10.17 10.17,10.17h18.53878c5.60706,0 10.17,-4.56294 10.17,-10.17v-15.29568c0,-1.72664 -1.40346,-3.1301 -3.1301,-3.1301z" fill="#472b29"></path><path d="M135.43502,143.69984h39.67204v6.61276h-39.67204z" fill="#f1bc19"></path><path d="M175.8393,150.87534h-41.13878c-0.31188,0 -0.565,-0.25312 -0.565,-0.565c0,-0.31188 0.25312,-0.565 0.565,-0.565h41.13878c0.31188,0 0.565,0.25312 0.565,0.565c0,0.31188 -0.25312,0.565 -0.565,0.565zM162.98442,144.26258h-28.2839c-0.31188,0 -0.565,-0.25312 -0.565,-0.565c0,-0.31188 0.25312,-0.565 0.565,-0.565h28.2839c0.31188,0 0.565,0.25312 0.565,0.565c0,0.31188 -0.25538,0.565 -0.565,0.565zM171.06618,144.26258h-5.1415c-0.31188,0 -0.565,-0.25312 -0.565,-0.565c0,-0.31188 0.25312,-0.565 0.565,-0.565h5.1415c0.31188,0 0.565,0.25312 0.565,0.565c0,0.31188 -0.25312,0.565 -0.565,0.565zM175.47318,144.26258h-2.20576c-0.31188,0 -0.565,-0.25312 -0.565,-0.565c0,-0.31188 0.25312,-0.565 0.565,-0.565h2.20576c0.31188,0 0.565,0.25312 0.565,0.565c0,0.31188 -0.25312,0.565 -0.565,0.565z" fill="#472b29"></path><path d="M134.70052,149.3973c-0.0565,0 -0.113,-0.01808 -0.16272,-0.04972c-0.12656,-0.0904 -0.15594,-0.26668 -0.0678,-0.3955l3.81488,-5.43982c0.0904,-0.12882 0.26442,-0.15368 0.3955,-0.0678c0.12656,0.0904 0.15594,0.26668 0.0678,0.3955l-3.81488,5.43982c-0.0565,0.07458 -0.14464,0.11752 -0.23278,0.11752zM140.39572,150.28548c-0.0565,0 -0.113,-0.01808 -0.16272,-0.04972c-0.12656,-0.0904 -0.15594,-0.26668 -0.0678,-0.3955l4.407,-6.28054c0.0904,-0.13108 0.26442,-0.15142 0.3955,-0.0678c0.12656,0.0904 0.15594,0.26668 0.0678,0.3955l-4.407,6.28054c-0.0565,0.07684 -0.14464,0.11752 -0.23278,0.11752zM146.02538,150.28548c-0.0565,0 -0.113,-0.01808 -0.16272,-0.04972c-0.12656,-0.0904 -0.15594,-0.26668 -0.0678,-0.3955l4.40926,-6.28054c0.0904,-0.13108 0.26442,-0.15142 0.3955,-0.0678c0.12656,0.0904 0.15594,0.26668 0.0678,0.3955l-4.40926,6.28054c-0.0565,0.07684 -0.14464,0.11752 -0.23278,0.11752zM151.6573,150.28548c-0.0565,0 -0.113,-0.01808 -0.16272,-0.04972c-0.12656,-0.0904 -0.15594,-0.26668 -0.0678,-0.3955l4.40926,-6.28054c0.0904,-0.13108 0.26668,-0.15142 0.3955,-0.0678c0.12656,0.0904 0.15594,0.26668 0.0678,0.3955l-4.40926,6.28054c-0.0565,0.07684 -0.14464,0.11752 -0.23278,0.11752zM157.28922,150.28548c-0.0565,0 -0.113,-0.01808 -0.16272,-0.04972c-0.12656,-0.0904 -0.15594,-0.26668 -0.0678,-0.3955l4.40926,-6.28054c0.0904,-0.13108 0.26442,-0.15142 0.3955,-0.0678c0.12656,0.0904 0.15594,0.26668 0.0678,0.3955l-4.40926,6.28054c-0.0565,0.07684 -0.14464,0.11752 -0.23278,0.11752zM162.92114,150.28548c-0.0565,0 -0.113,-0.01808 -0.16272,-0.04972c-0.12656,-0.0904 -0.15594,-0.26668 -0.0678,-0.3955l4.40926,-6.28054c0.0904,-0.13108 0.26442,-0.15142 0.3955,-0.0678c0.12656,0.0904 0.15594,0.26668 0.0678,0.3955l-4.40926,6.28054c-0.05424,0.07684 -0.14238,0.11752 -0.23278,0.11752zM168.55532,150.28548c-0.0565,0 -0.113,-0.01808 -0.16272,-0.04972c-0.12656,-0.0904 -0.15594,-0.26668 -0.0678,-0.3955l4.40926,-6.28054c0.0904,-0.13108 0.26668,-0.15142 0.3955,-0.0678c0.12656,0.0904 0.15594,0.26668 0.0678,0.3955l-4.40926,6.28054c-0.0565,0.07684 -0.14464,0.11752 -0.23278,0.11752z" fill="#472b29"></path><path d="M157.5672,163.53586l-1.27012,-4.24202c-0.08814,-0.24182 -0.24182,-0.44748 -0.02486,-0.58534c0.65992,-0.41584 1.04638,-1.22266 0.82038,-2.1018c-0.16272,-0.63732 -0.68252,-1.16164 -1.31984,-1.32888c-1.26786,-0.33448 -2.40916,0.61698 -2.40916,1.83286c0,0.66896 0.34804,1.2543 0.8701,1.59104c0.226,0.14464 0.14916,0.31188 0.0565,0.56274l-1.34018,4.27366h4.61718z" fill="#6f913d"></path><path d="M157.56494,164.15736h-4.61492c-0.19888,0 -0.3842,-0.09492 -0.50172,-0.25312c-0.11752,-0.16046 -0.15142,-0.36612 -0.09266,-0.5537l1.34018,-4.2714c-0.60342,-0.47686 -0.95598,-1.19554 -0.95598,-1.97072c0,-0.78874 0.35934,-1.51646 0.98536,-1.99784c0.6215,-0.48138 1.42832,-0.63958 2.20576,-0.43392c0.85202,0.22374 1.54584,0.91982 1.7628,1.7741c0.25086,0.98762 -0.07006,1.97072 -0.82716,2.59222c0.00904,0.02034 0.01356,0.03616 0.01582,0.03842l1.27916,4.27592c0.05424,0.18984 0.02034,0.39324 -0.09718,0.54918c-0.11752,0.1582 -0.30284,0.25086 -0.49946,0.25086zM153.79526,162.9121h2.93574l-1.03056,-3.43972c-0.32544,-0.75258 -0.04746,-1.10966 0.23504,-1.2882c0.47912,-0.30284 0.69608,-0.86106 0.55144,-1.4238c-0.10622,-0.4181 -0.45878,-0.77292 -0.87688,-0.88366c-0.4068,-0.10622 -0.80682,-0.02938 -1.12774,0.21922c-0.31866,0.24182 -0.49946,0.61246 -0.49946,1.01248c0,0.43166 0.21922,0.83168 0.58534,1.06898c0.63506,0.4068 0.40228,1.03282 0.3164,1.27012zM153.89696,159.22378v0zM137.38088,150.45272c-0.0565,0 -0.113,-0.01808 -0.16272,-0.04972c-0.12656,-0.0904 -0.15594,-0.26668 -0.0678,-0.3955l4.407,-6.2828c0.0904,-0.12656 0.26216,-0.15368 0.3955,-0.0678c0.12656,0.0904 0.15594,0.26668 0.0678,0.3955l-4.407,6.2828c-0.0565,0.07458 -0.14464,0.11752 -0.23278,0.11752zM143.1484,150.45272c-0.0565,0 -0.113,-0.01808 -0.16272,-0.04972c-0.12656,-0.0904 -0.15594,-0.26668 -0.0678,-0.3955l4.407,-6.2828c0.08814,-0.12656 0.26216,-0.15368 0.3955,-0.0678c0.12656,0.0904 0.15594,0.26668 0.0678,0.3955l-4.407,6.2828c-0.05424,0.07458 -0.14464,0.11752 -0.23278,0.11752zM148.77354,150.28548c-0.0565,0 -0.113,-0.01808 -0.16272,-0.04972c-0.12656,-0.0904 -0.15594,-0.26668 -0.0678,-0.3955l4.407,-6.28054c0.0904,-0.13108 0.26442,-0.15142 0.3955,-0.0678c0.12656,0.0904 0.15594,0.26668 0.0678,0.3955l-4.407,6.28054c-0.0565,0.07684 -0.14464,0.11752 -0.23278,0.11752zM154.26082,150.45272c-0.0565,0 -0.113,-0.01808 -0.16272,-0.04972c-0.12656,-0.0904 -0.15594,-0.26668 -0.0678,-0.3955l4.40926,-6.2828c0.0904,-0.12882 0.26442,-0.15368 0.3955,-0.0678c0.12656,0.0904 0.15594,0.26668 0.0678,0.3955l-4.40926,6.2828c-0.05424,0.07458 -0.14464,0.11752 -0.23278,0.11752zM160.13456,150.45272c-0.0565,0 -0.113,-0.01808 -0.16272,-0.04972c-0.12656,-0.0904 -0.15594,-0.26668 -0.0678,-0.3955l4.407,-6.2828c0.08814,-0.12656 0.26216,-0.15368 0.3955,-0.0678c0.12656,0.0904 0.15594,0.26668 0.0678,0.3955l-4.407,6.2828c-0.0565,0.07458 -0.14464,0.11752 -0.23278,0.11752zM165.55404,150.59284c-0.0565,0 -0.113,-0.01808 -0.16272,-0.04972c-0.12656,-0.0904 -0.15594,-0.26668 -0.0678,-0.3955l4.407,-6.2828c0.0904,-0.12882 0.26216,-0.15594 0.3955,-0.0678c0.12656,0.0904 0.15594,0.26668 0.0678,0.3955l-4.407,6.2828c-0.05424,0.07684 -0.14238,0.11752 -0.23278,0.11752zM171.23116,150.59284c-0.0565,0 -0.113,-0.01808 -0.16272,-0.04972c-0.12656,-0.0904 -0.15594,-0.26668 -0.0678,-0.3955l4.407,-6.2828c0.08814,-0.12882 0.2599,-0.15594 0.3955,-0.0678c0.12656,0.0904 0.15594,0.26668 0.0678,0.3955l-4.407,6.2828c-0.0565,0.07684 -0.14464,0.11752 -0.23278,0.11752z" fill="#472b29"></path></g></g></svg>