<svg version="1.1" xmlns="http://www.w3.org/2000/svg" xmlns:xlink="http://www.w3.org/1999/xlink" viewBox="0 0 226 226"><g fill="none" fill-rule="nonzero" stroke="none" stroke-width="1" stroke-linecap="butt" stroke-linejoin="miter" stroke-miterlimit="10" stroke-dasharray="" stroke-dashoffset="0" font-family="none" font-weight="none" font-size="none" text-anchor="none" style="mix-blend-mode: normal"><path d="M0,226v-226h226v226z" fill="none"></path><g><path d="M197.14884,125.54526c0.678,-1.39216 1.27916,-2.85664 1.79896,-4.39118c5.95058,-17.5602 -3.04874,-38.59628 -21.99658,-43.6745c-2.04756,-25.72558 -20.12756,-43.37618 -40.54666,-46.3865c-23.37066,-3.4465 -44.77964,11.39944 -51.90316,34.9961c-8.58574,-3.04196 -16.95226,-2.67132 -24.8374,1.93682c-3.57758,1.65432 -6.85006,4.09512 -9.7858,7.30658c-4.30982,4.71436 -7.11222,10.66494 -8.25352,16.9387c-1.69048,0.26668 -3.35158,0.53336 -4.91776,1.09384c-9.1304,3.27474 -14.89114,10.01406 -16.47088,20.16598c-0.9831,6.32122 1.00118,12.62662 2.10858,15.17364c4.3731,10.0683 14.51372,15.7748 24.81706,14.26512c0.51302,-0.07458 1.25882,0.15594 1.69952,0.52658c0.54466,16.0912 8.35748,30.32242 20.07784,38.45164c18.80546,13.04472 43.00102,9.02644 58.26506,-8.86146c6.54044,6.6896 14.32388,9.93948 23.46784,8.75976c9.09198,-1.17294 16.15222,-6.19014 21.30276,-14.34874c2.37978,0.63958 4.63526,1.56166 6.96758,1.81704c9.13492,0.99892 16.49122,-2.67584 21.99432,-10.848c0.18758,-0.28024 0.45878,-0.49494 0.69156,-0.74128c0.78648,-1.80348 1.57296,-3.60696 2.35944,-5.41044c0.3503,-2.73686 0.96954,-5.47598 1.00118,-8.20832c0.08814,-7.35856 -2.91992,-14.06624 -7.83994,-18.56138z" fill="#a2dbfa"></path><path d="M60.08662,159.06106c0,0 26.42166,0 26.58212,0c6.102,0 11.04688,-4.94714 11.04688,-11.04914c0,-5.3223 -3.76516,-9.76546 -8.77784,-10.81184c0.05876,-0.46556 0.09718,-0.9379 0.09718,-1.41928c0,-6.31896 -5.12342,-11.44238 -11.44238,-11.44238c-3.73126,0 -7.03538,1.79444 -9.12362,4.55842c-0.53336,-7.03538 -6.81842,-12.46164 -14.1702,-11.56216c-5.37654,0.65766 -9.82196,4.8138 -10.81184,10.13836c-0.3164,1.70856 -0.28476,3.36514 0.03164,4.92002c-1.44188,-1.55262 -3.49396,-2.52894 -5.77882,-2.52894c-4.181,0 -7.59586,3.25666 -7.8648,7.36986c-1.8984,-0.42036 -3.96404,-0.39324 -6.14042,0.42488c-4.1584,1.56166 -7.119,5.47598 -7.29302,9.91462c-0.24634,6.30314 4.7912,11.4921 11.0401,11.4921c0.4746,0 2.14248,0 2.52668,0h22.94126" fill="#fdfcef"></path><path d="M86.66874,160.19106h-26.58212c-0.62376,0 -1.13,-0.50624 -1.13,-1.13c0,-0.62376 0.50624,-1.13 1.13,-1.13h26.58212c5.4692,0 9.91914,-4.44994 9.91914,-9.91914c0,-4.66916 -3.31316,-8.75298 -7.87836,-9.7067c-0.5763,-0.11978 -0.96276,-0.66218 -0.89044,-1.24752c0.05198,-0.42036 0.08814,-0.84524 0.08814,-1.2769c0,-5.68842 -4.62622,-10.31238 -10.31012,-10.31238c-3.24988,0 -6.2489,1.49838 -8.22188,4.10868c-0.2825,0.37516 -0.76388,0.53562 -1.2204,0.40228c-0.44974,-0.13334 -0.77292,-0.52884 -0.80682,-0.99666c-0.23504,-3.11202 -1.76054,-6.03646 -4.181,-8.02074c-2.44758,-2.00688 -5.55056,-2.89732 -8.7236,-2.50634c-4.89516,0.60116 -8.94056,4.39118 -9.83778,9.22306c-0.28024,1.50742 -0.2712,3.0171 0.02938,4.48836c0.09944,0.4972 -0.14012,0.99892 -0.59212,1.22944c-0.452,0.23504 -1.00118,0.1356 -1.3447,-0.23504c-1.2995,-1.39668 -3.05778,-2.16734 -4.9494,-2.16734c-3.54594,0 -6.50428,2.77528 -6.73706,6.31444c-0.0226,0.32996 -0.18532,0.63054 -0.44974,0.82716c-0.26442,0.20114 -0.60568,0.2712 -0.92208,0.20114c-1.90066,-0.4181 -3.69962,-0.29832 -5.49858,0.37742c-3.77194,1.41702 -6.4071,4.99234 -6.56078,8.89988c-0.10622,2.72782 0.87462,5.311 2.75946,7.27268c1.8871,1.96394 4.42734,3.04648 7.15064,3.04648h25.46794c0.62376,0 1.13,0.50624 1.13,1.13c0,0.62376 -0.50624,1.13 -1.13,1.13h-25.47246c-3.34254,0 -6.45908,-1.32888 -8.77784,-3.73804c-2.3165,-2.40916 -3.52108,-5.57994 -3.39,-8.927c0.18758,-4.80476 3.4126,-9.19594 8.023,-10.9271c1.808,-0.68026 3.67476,-0.89948 5.57768,-0.67574c0.85202,-4.11772 4.51548,-7.19132 8.8253,-7.19132c1.54584,0 3.06004,0.4068 4.39344,1.1526c0,-0.87236 0.0791,-1.74472 0.23956,-2.61934c1.07802,-5.79012 5.92346,-10.33498 11.7859,-11.05366c3.79454,-0.4633 7.5032,0.60116 10.43216,3.00128c2.26678,1.85998 3.87816,4.40926 4.60588,7.21618c2.28712,-2.07016 5.24094,-3.22276 8.39364,-3.22276c6.93142,0 12.57012,5.64096 12.57012,12.57238c0,0.18758 -0.00452,0.37516 -0.01582,0.56048c5.09404,1.52098 8.69648,6.27376 8.69648,11.67064c0.00226,6.71898 -5.46016,12.17914 -12.17688,12.17914z" fill="#472b29"></path><path d="M53.68404,134.72538c-4.08608,-0.26894 -7.6049,2.5538 -7.85576,6.30314c-0.03164,0.46556 -0.0113,0.92434 0.0565,1.36956c-0.78874,-0.89044 -1.9549,-1.49386 -3.29508,-1.582c-2.4521,-0.16046 -4.56972,1.4577 -4.87708,3.6612c-0.44522,-0.12204 -0.91078,-0.2034 -1.39216,-0.23504c-3.57532,-0.23504 -6.65344,2.23514 -6.87492,5.51666" fill="#fdfcef"></path><path d="M29.4478,150.32164c-0.01356,0 -0.02712,0 -0.03842,-0.00226c-0.31188,-0.02034 -0.54692,-0.28928 -0.52658,-0.60116c0.24182,-3.58662 3.58888,-6.30314 7.47608,-6.04324c0.30962,0.02034 0.61698,0.05876 0.92434,0.11978c0.61924,-2.18768 2.83856,-3.7177 5.34716,-3.54142c0.9605,0.06102 1.85998,0.35934 2.63064,0.86332c0,-0.04294 0.00452,-0.08362 0.00678,-0.12656c0.2712,-4.0567 4.03862,-7.1416 8.45692,-6.82746c0.31188,0.02034 0.54692,0.28928 0.52658,0.60116c-0.02034,0.31188 -0.28024,0.5763 -0.60116,0.52432c-3.73126,-0.2373 -7.02408,2.34362 -7.2546,5.77882c-0.02712,0.41584 -0.00904,0.8362 0.05198,1.24978c0.03842,0.24634 -0.09266,0.49042 -0.31866,0.59664c-0.226,0.10622 -0.49494,0.04972 -0.66218,-0.13786c-0.72998,-0.8249 -1.7628,-1.31984 -2.90862,-1.39442c-2.14926,-0.07684 -4.0115,1.25656 -4.28044,3.17304c-0.0226,0.16046 -0.113,0.3051 -0.2486,0.3955c-0.1356,0.08814 -0.30058,0.11526 -0.46104,0.07232c-0.42262,-0.11526 -0.85202,-0.18758 -1.28142,-0.21922c-3.2544,-0.20792 -6.07262,2.02496 -6.2715,4.99234c-0.02486,0.29832 -0.27346,0.52658 -0.56726,0.52658z" fill="#472b29"></path><path d="M91.14354,138.49506c-3.83974,-1.81026 -8.28064,-0.52884 -9.91914,2.86342c-0.2034,0.42036 -0.35482,0.85654 -0.45426,1.29724" fill="#fdfcef"></path><path d="M80.77014,143.22072c-0.04068,0 -0.08362,-0.00452 -0.12656,-0.01356c-0.30284,-0.07006 -0.49494,-0.3729 -0.42488,-0.678c0.11074,-0.49042 0.27798,-0.96728 0.49494,-1.41702c1.76958,-3.66346 6.55852,-5.06014 10.66946,-3.1301c0.2825,0.1356 0.40454,0.47008 0.2712,0.75258c-0.13334,0.28476 -0.47234,0.39776 -0.75258,0.2712c-3.55724,-1.68144 -7.67044,-0.51302 -9.17108,2.59674c-0.1808,0.3729 -0.31866,0.7684 -0.41132,1.17746c-0.05876,0.26442 -0.29154,0.4407 -0.54918,0.4407z" fill="#472b29"></path><g fill="#ffffff"><path d="M44.68924,99.44h-22.6678c-0.62376,0 -1.13,-0.50624 -1.13,-1.13c0,-0.62376 0.50624,-1.13 1.13,-1.13h22.6678c0.62376,0 1.13,0.50624 1.13,1.13c0,0.62376 -0.50398,1.13 -1.13,1.13zM52.3303,98.31c0,-0.62376 -0.50624,-1.13 -1.13,-1.13h-3.26796c-0.62376,0 -1.13,0.50624 -1.13,1.13c0,0.62376 0.50624,1.13 1.13,1.13h3.26796c0.62602,0 1.13,-0.50624 1.13,-1.13zM61.4946,98.31c0,-0.62376 -0.50624,-1.13 -1.13,-1.13h-5.75396c-0.62376,0 -1.13,0.50624 -1.13,1.13c0,0.62376 0.50624,1.13 1.13,1.13h5.75396c0.62602,0 1.13,-0.50624 1.13,-1.13zM61.4946,102.83c0,-0.62376 -0.50624,-1.13 -1.13,-1.13h-21.73216c-0.62376,0 -1.13,0.50624 -1.13,1.13c0,0.62376 0.50624,1.13 1.13,1.13h21.73216c0.62602,0 1.13,-0.50624 1.13,-1.13zM35.84812,102.83c0,-0.62376 -0.50624,-1.13 -1.13,-1.13h-1.3108c-0.62376,0 -1.13,0.50624 -1.13,1.13c0,0.62376 0.50624,1.13 1.13,1.13h1.3108c0.62376,0 1.13,-0.50624 1.13,-1.13zM30.47836,102.83c0,-0.62376 -0.50624,-1.13 -1.13,-1.13h-3.29282c-0.62376,0 -1.13,0.50624 -1.13,1.13c0,0.62376 0.50624,1.13 1.13,1.13h3.29282c0.62376,0 1.13,-0.50624 1.13,-1.13zM51.12346,93.79c0,-0.62376 -0.50624,-1.13 -1.13,-1.13h-11.36102c-0.62376,0 -1.13,0.50624 -1.13,1.13c0,0.62376 0.50624,1.13 1.13,1.13h11.36102c0.62602,0 1.13,-0.50624 1.13,-1.13zM51.12346,89.27c0,-0.62376 -0.50624,-1.13 -1.13,-1.13h-2.84082c-0.62376,0 -1.13,0.50624 -1.13,1.13c0,0.62376 0.50624,1.13 1.13,1.13h2.84082c0.62602,0 1.13,-0.50624 1.13,-1.13zM43.73552,107.35c0,-0.62376 -0.50624,-1.13 -1.13,-1.13h-3.97308c-0.62376,0 -1.13,0.50624 -1.13,1.13c0,0.62376 0.50624,1.13 1.13,1.13h3.97308c0.62602,0 1.13,-0.50624 1.13,-1.13z"></path></g><g><path d="M201.54228,113.64862c4.25558,0 7.94842,0 8.0004,0c4.7686,0 8.63546,-3.78324 8.63546,-8.45014c0,-4.07252 -2.94252,-7.4693 -6.8591,-8.2716c0.0452,-0.35708 0.07684,-0.71642 0.07684,-1.0848c0,-4.83414 -4.00472,-8.75298 -8.94282,-8.75298c-2.9154,0 -5.49858,1.37182 -7.1303,3.48718c-0.4181,-5.38106 -5.32908,-9.53268 -11.074,-8.84338c-4.20134,0.50398 -7.67722,3.68154 -8.45014,7.75406c-0.2486,1.30628 -0.22148,2.57414 0.02486,3.7629c-1.12548,-1.1865 -2.73008,-1.93456 -4.51548,-1.93456c-3.26796,0 -5.93702,2.49052 -6.1472,5.63644c-1.48482,-0.32092 -3.09846,-0.30058 -4.79798,0.32318c-3.24988,1.19328 -5.56412,4.18778 -5.69972,7.58456c-0.1921,4.82058 3.74482,8.78914 8.62868,8.78914c0.37064,0 1.67466,0 1.97524,0h17.93084M186.90426,113.64862h0.8136" fill="#fdfcef"></path><path d="M209.54268,114.78088h-8.0004c-0.62376,0 -1.13,-0.50624 -1.13,-1.13c0,-0.62376 0.50624,-1.13 1.13,-1.13h8.0004c4.13806,0 7.50546,-3.28378 7.50546,-7.32014c0,-3.44424 -2.50408,-6.45908 -5.95736,-7.1642c-0.57856,-0.11978 -0.96954,-0.66444 -0.89496,-1.25204c0.04068,-0.30962 0.0678,-0.6215 0.0678,-0.94242c0,-4.2036 -3.50526,-7.62298 -7.81282,-7.62298c-2.46792,0 -4.74148,1.10966 -6.2376,3.04874c-0.28476,0.37064 -0.77066,0.52206 -1.21814,0.39324c-0.44748,-0.1356 -0.76614,-0.52884 -0.8023,-0.9944c-0.17854,-2.3052 -1.2769,-4.39344 -3.09394,-5.88504c-1.87354,-1.5368 -4.2601,-2.21254 -6.71898,-1.92778c-3.71996,0.44522 -6.79356,3.25892 -7.47382,6.84102c-0.21244,1.1187 -0.20566,2.2374 0.02034,3.32672c0.1017,0.49494 -0.1356,0.99666 -0.58308,1.2317c-0.44522,0.23052 -0.9944,0.14238 -1.34244,-0.226c-0.96728,-1.01926 -2.28034,-1.582 -3.6951,-1.582c-2.64194,0 -4.8477,2.01366 -5.01946,4.58102c-0.0226,0.32996 -0.18532,0.62828 -0.44748,0.82716c-0.26216,0.19662 -0.59664,0.2712 -0.91756,0.20114c-1.44414,-0.31188 -2.80918,-0.22148 -4.17196,0.2825c-2.85212,1.04638 -4.84544,3.68606 -4.9607,6.5653c-0.0791,1.97976 0.63958,3.86234 2.0227,5.30196c1.4351,1.4916 3.38096,2.31424 5.47598,2.31424h19.90382c0.62376,0 1.13,0.50624 1.13,1.13c0,0.62376 -0.50624,1.13 -1.13,1.13h-19.90382c-2.6781,0 -5.26806,-1.0961 -7.10544,-3.00806c-1.81478,-1.88936 -2.75494,-4.35954 -2.65098,-6.95628c0.15142,-3.7855 2.73912,-7.24104 6.43874,-8.60156c1.3786,-0.5085 2.8024,-0.68704 4.2488,-0.55144c0.77744,-3.15496 3.68154,-5.47824 7.0851,-5.47824c1.11418,0 2.20802,0.25538 3.19564,0.72998c0.02034,-0.54692 0.08362,-1.09384 0.18758,-1.64302c0.86106,-4.54034 4.73696,-8.1021 9.4242,-8.66258c3.0849,-0.37742 6.0681,0.49268 8.42076,2.42046c1.69048,1.38538 2.88828,3.18434 3.49396,5.20252c1.78766,-1.46448 4.03636,-2.27582 6.42292,-2.27582c5.55508,0 10.07282,4.43412 10.07282,9.88298c0,0.07684 0,0.15368 -0.00226,0.23278c3.98664,1.2543 6.78678,4.94488 6.78678,9.12588c0.00226,5.28614 -4.37762,9.58466 -9.7632,9.58466zM187.71786,114.78088h-0.8136c-0.62376,0 -1.13,-0.50624 -1.13,-1.13c0,-0.62376 0.50624,-1.13 1.13,-1.13h0.8136c0.62376,0 1.13,0.50624 1.13,1.13c0,0.62376 -0.50624,1.13 -1.13,1.13z" fill="#472b29"></path><g fill="#472b29"><path d="M205.68486,101.66384c-0.04068,0 -0.08136,-0.00452 -0.1243,-0.01356c-0.3051,-0.0678 -0.4972,-0.37064 -0.42714,-0.67574c0.08362,-0.37064 0.21244,-0.7345 0.3842,-1.08254c1.36504,-2.76624 5.13472,-3.79002 8.41172,-2.27582c0.2825,0.13108 0.4068,0.46556 0.27572,0.74806c-0.13108,0.28476 -0.46782,0.40454 -0.75032,0.27572c-2.71426,-1.25656 -5.82402,-0.47008 -6.92238,1.74924c-0.13108,0.26668 -0.23052,0.54692 -0.2938,0.82942c-0.06102,0.26668 -0.2938,0.44522 -0.5537,0.44522z"></path></g><g fill="#472b29"><path d="M194.02552,114.78088h-2.50182c-0.62376,0 -1.13,-0.50624 -1.13,-1.13c0,-0.62376 0.50624,-1.13 1.13,-1.13h2.50182c0.62376,0 1.13,0.50624 1.13,1.13c0,0.62376 -0.50398,1.13 -1.13,1.13z"></path></g></g><g fill="#ffffff"><path d="M179.9864,76.6931h-22.6678c-0.62376,0 -1.13,-0.50624 -1.13,-1.13c0,-0.62376 0.50624,-1.13 1.13,-1.13h22.67006c0.62376,0 1.13,0.50624 1.13,1.13c0,0.62376 -0.5085,1.13 -1.13226,1.13zM187.62746,75.5631c0,-0.62376 -0.50624,-1.13 -1.13,-1.13h-3.26796c-0.62376,0 -1.13,0.50624 -1.13,1.13c0,0.62376 0.50624,1.13 1.13,1.13h3.26796c0.62602,0 1.13,-0.50624 1.13,-1.13zM196.79176,75.5631c0,-0.62376 -0.50624,-1.13 -1.13,-1.13h-5.75396c-0.62376,0 -1.13,0.50624 -1.13,1.13c0,0.62376 0.50624,1.13 1.13,1.13h5.75396c0.62376,0 1.13,-0.50624 1.13,-1.13zM192.21074,67.1333c0,-0.62376 -0.50624,-1.13 -1.13,-1.13h-21.73216c-0.62376,0 -1.13,0.50624 -1.13,1.13c0,0.62376 0.50624,1.13 1.13,1.13h21.73216c0.62602,0 1.13,-0.50624 1.13,-1.13zM166.56426,67.1333c0,-0.62376 -0.50624,-1.13 -1.13,-1.13h-1.3108c-0.62376,0 -1.13,0.50624 -1.13,1.13c0,0.62376 0.50624,1.13 1.13,1.13h1.3108c0.62828,0 1.13,-0.50624 1.13,-1.13zM161.1945,67.1333c0,-0.62376 -0.50624,-1.13 -1.13,-1.13h-3.29056c-0.62376,0 -1.13,0.50624 -1.13,1.13c0,0.62376 0.50624,1.13 1.13,1.13h3.29056c0.62602,0 1.13,-0.50624 1.13,-1.13zM186.42062,71.3482c0,-0.62376 -0.50624,-1.13 -1.13,-1.13h-11.36102c-0.62376,0 -1.13,0.50624 -1.13,1.13c0,0.62376 0.50624,1.13 1.13,1.13h11.36102c0.6215,0 1.13,-0.50624 1.13,-1.13zM186.42062,67.1333c0,-0.62376 -0.50624,-1.13 -1.13,-1.13h-2.84082c-0.62376,0 -1.13,0.50624 -1.13,1.13c0,0.62376 0.50624,1.13 1.13,1.13h2.84082c0.6215,0 1.13,-0.50624 1.13,-1.13zM171.76904,71.3482c0,-0.62376 -0.50624,-1.13 -1.13,-1.13h-3.97308c-0.62376,0 -1.13,0.50624 -1.13,1.13c0,0.62376 0.50624,1.13 1.13,1.13h3.97308c0.62602,0 1.13,-0.50624 1.13,-1.13z"></path></g><g><path d="M162.26348,166.675c-0.4407,-6.4636 -0.96502,-10.11124 -0.96502,-10.11124c-0.9153,-4.84996 -2.8928,-7.69078 -7.55292,-9.09876c-0.2034,-0.06102 -0.4746,-0.16046 -0.7797,-0.27798c-0.35256,-0.15368 -0.80004,-0.33222 -1.32436,-0.53788c-2.82274,-1.19328 -19.60098,-7.38342 -19.60098,-7.38342c-1.38312,-0.3503 -2.2826,-1.33566 -2.8024,-2.44532c-0.8588,-1.83286 -0.52658,-6.58564 -0.52658,-6.58564c0,0 -7.01504,2.40012 -11.39266,3.21824c-4.294,0.4181 -13.52158,-5.13472 -13.52158,-5.13472c0,0 -0.21696,6.86362 -0.5085,8.38912c-0.23052,1.1978 -1.51872,2.21028 -2.90184,2.56058l-16.10024,5.83758c-1.78088,0.46556 -3.48944,1.13 -4.99234,2.0566c-4.05218,2.50182 -6.10426,6.25794 -7.14838,9.4016c0,0 -1.05994,7.49416 -1.017,7.7631c-0.07006,0.73224 -0.14238,1.52776 -0.2147,2.34814z" fill="#ce9065"></path><path d="M162.01488,166.675c-0.27572,-5.49632 -0.4972,-9.8423 -0.4972,-9.8423c-0.9153,-4.84996 -2.8928,-7.69078 -7.55292,-9.09876c-0.2034,-0.06102 -0.4746,-0.16046 -0.7797,-0.27798c-0.35256,-0.15368 -0.80004,-0.33222 -1.32436,-0.53788c-1.52776,-0.64636 -16.55902,-5.89182 -21.38864,-7.69078c-6.59242,4.6443 -9.55754,6.43422 -13.9555,6.43422c-4.6895,0 -7.38342,-2.83856 -13.91708,-6.78l-7.31562,2.7007c-0.01808,-0.00904 -0.03616,-0.02034 -0.05424,-0.02938l-0.70964,0.18758l-10.01406,3.62956c-1.78088,0.46556 -3.48944,1.13 -4.99234,2.05886c-4.05218,2.50182 -6.10426,6.25794 -7.14838,9.4016c0,0 -1.05994,7.49416 -1.017,7.7631c-0.0226,0.23956 -0.0452,1.02152 -0.07006,2.0792h90.73674z" fill="#78a0cf"></path><path d="M71.0318,164.97096c-0.06328,0 -0.12882,-0.01808 -0.18532,-0.05424c-0.15594,-0.10396 -0.20114,-0.31414 -0.09718,-0.47008l10.9045,-16.68558c0.1017,-0.15594 0.31414,-0.2034 0.47008,-0.09944c0.15594,0.10396 0.20114,0.31414 0.09718,0.47008l-10.9045,16.68558c-0.06554,0.09718 -0.17402,0.15368 -0.28476,0.15368zM74.39016,165.53144c-0.06328,0 -0.12882,-0.01808 -0.18532,-0.05424c-0.15594,-0.10396 -0.20114,-0.31414 -0.09718,-0.47008l12.17688,-18.63144c0.1017,-0.1582 0.31414,-0.2034 0.47008,-0.09944c0.15594,0.10396 0.20114,0.31414 0.09718,0.47008l-12.17688,18.63144c-0.06554,0.09718 -0.17402,0.15368 -0.28476,0.15368zM78.54404,164.97096c-0.06328,0 -0.12882,-0.01808 -0.18532,-0.05424c-0.15594,-0.10396 -0.20114,-0.31414 -0.09718,-0.47008l12.17688,-18.63144c0.1017,-0.15594 0.31414,-0.20114 0.47008,-0.09944c0.15594,0.10396 0.20114,0.31414 0.09718,0.47008l-12.17688,18.63144c-0.06554,0.09718 -0.17402,0.15368 -0.28476,0.15368zM81.93856,165.53144c-0.06328,0 -0.12882,-0.01808 -0.18532,-0.05424c-0.15594,-0.10396 -0.20114,-0.31414 -0.09718,-0.47008l12.17688,-18.63144c0.10396,-0.1582 0.31414,-0.2034 0.47008,-0.09944c0.15594,0.10396 0.20114,0.31414 0.09718,0.47008l-12.17688,18.63144c-0.0678,0.09718 -0.17628,0.15368 -0.28476,0.15368zM85.45286,165.94276c-0.06328,0 -0.12882,-0.01808 -0.18532,-0.05424c-0.15594,-0.10396 -0.20114,-0.31414 -0.09718,-0.47008l8.65128,-13.23682c0.1017,-0.15594 0.31414,-0.20114 0.47008,-0.09944c0.15594,0.10396 0.20114,0.31414 0.09718,0.47008l-8.65128,13.23682c-0.0678,0.09944 -0.17402,0.15368 -0.28476,0.15368zM89.09372,166.3586c-0.06328,0 -0.12882,-0.01808 -0.18532,-0.05424c-0.15594,-0.10396 -0.20114,-0.31414 -0.09718,-0.47008l4.32564,-6.61954c0.1017,-0.15594 0.31188,-0.20114 0.47008,-0.09944c0.15594,0.10396 0.20114,0.31414 0.09718,0.47008l-4.32564,6.61954c-0.06554,0.09944 -0.17402,0.15368 -0.28476,0.15368z" fill="#472b29"></path><path d="M143.88968,96.615c-0.26442,-0.01808 -0.53336,-0.02034 -0.8136,-0.02034c-2.1809,-0.10622 -2.8024,0.76388 -2.70296,-0.58534c0.17628,-2.3956 -0.1582,-12.11586 -0.1582,-12.60628c0,-10.07056 -10.51578,-18.28566 -24.38992,-18.73992v-0.02938c0.64636,0.00226 0.56048,0.01356 0.47008,0.01582c-0.08814,-0.00226 -0.17402,-0.01356 1.78992,-0.01582v0.02938c-15.19172,0.45652 -25.7075,8.66936 -25.7075,18.73992c0,0.49042 -0.33448,10.20842 -0.1582,12.60628c0.09944,1.34922 -0.52206,0.47912 -2.70296,0.58534c-0.28024,0 -0.54918,0.00226 -0.8136,0.02034c-2.39108,0.16046 -4.32564,1.68144 -4.73922,3.56628c0.2938,0.17854 1.38086,8.43206 3.14366,11.6842c0.98536,1.81478 2.52216,2.0679 4.1019,3.24084c0.87462,0.64862 1.04412,1.38312 1.28368,2.35266c0.88592,3.5934 3.34706,6.64892 6.04324,9.25696c1.33114,1.2882 10.16774,10.70788 17.75908,10.23102c7.6275,-0.28702 16.42794,-8.94282 17.75908,-10.23102c2.69618,-2.60804 5.15732,-5.66356 6.04324,-9.25696c0.23956,-0.9718 0.4068,-1.70404 1.28368,-2.35266c1.57974,-1.17294 3.11654,-1.4238 4.1019,-3.24084c1.7628,-3.25214 2.85212,-11.50566 3.14366,-11.6842c-0.41132,-1.88484 -2.34588,-3.40808 -4.73696,-3.56628z" fill="#db9e71"></path><path d="M116.43294,112.56834c1.54358,0 3.0397,-0.67348 4.00246,-1.80122c0.09718,-0.113 0.08362,-0.28476 -0.02938,-0.38194v0c-0.113,-0.09718 -0.2825,-0.08588 -0.38194,0.02712c-0.78422,0.89722 -2.09502,1.4125 -3.59114,1.4125c-1.49838,0 -2.80692,-0.51528 -3.59114,-1.4125c-0.05424,-0.06102 -0.12882,-0.09266 -0.20566,-0.09266c-0.06328,0 -0.12656,0.0226 -0.17628,0.06554c-0.113,0.09718 -0.12656,0.26894 -0.02938,0.38194c0.96276,1.12774 2.45888,1.80122 4.00246,1.80122zM111.51066,91.71758l0.97858,-1.88032c-4.14032,-0.96954 -8.90666,-0.81586 -12.84132,0.40454l1.23396,1.83286c3.23406,-1.06672 7.21166,-1.20232 10.62878,-0.35708zM132.23712,91.71758l0.97858,-1.88032c-4.14032,-0.96954 -8.90666,-0.81586 -12.84132,0.40454l1.23396,1.83286c3.23632,-1.06672 7.21392,-1.20232 10.62878,-0.35708zM105.55104,94.37082c-0.9944,0 -1.86676,0.65766 -2.37074,1.65206c0.12656,-0.03842 0.25538,-0.06554 0.39324,-0.06554c0.81586,0 1.47578,0.73902 1.47578,1.64754c0,0.91078 -0.66218,1.64754 -1.47578,1.64754c-0.26668,0 -0.51302,-0.08588 -0.72998,-0.22374c0.34804,1.49386 1.42832,2.58092 2.70974,2.58092c1.56166,0 2.82952,-1.62042 2.82952,-3.62052c-0.00226,-1.99558 -1.27012,-3.61826 -2.83178,-3.61826zM127.19506,94.37082c-0.84976,0 -1.60912,0.48138 -2.12666,1.23848c0.16272,-0.0678 0.33674,-0.11074 0.5198,-0.11074c0.81586,0 1.47578,0.73902 1.47578,1.64754c0,0.91078 -0.66218,1.64754 -1.47578,1.64754c-0.50624,0 -0.95146,-0.28476 -1.21814,-0.71868c0.03616,1.95942 1.28594,3.53238 2.825,3.53238c1.56166,0 2.82952,-1.62042 2.82952,-3.62052c-0.00226,-1.99332 -1.26786,-3.616 -2.82952,-3.616zM128.39512,116.7629c0.11526,-0.09492 0.13334,-0.26442 0.04068,-0.37968v0c-0.09266,-0.11526 -0.26442,-0.1356 -0.38194,-0.04068c-2.54928,2.03174 -6.78452,3.1979 -11.61866,3.1979c-4.83414,0 -9.06938,-1.16616 -11.62092,-3.20016c-0.04972,-0.04068 -0.10848,-0.05876 -0.1695,-0.05876c-0.0791,0 -0.1582,0.0339 -0.21244,0.1017c-0.09266,0.11526 -0.07684,0.28702 0.03842,0.38194c2.87924,2.35266 7.35178,3.75838 11.96218,3.75838c4.6104,-0.00226 9.08068,-1.40572 11.96218,-3.76064z" fill="#512c2b"></path><path d="M144.02754,107.64606l-1.34696,-0.14916l0.452,-4.02054l-2.28486,0.98988l-0.53788,-1.24526l3.35836,-1.45544c0.226,-0.09718 0.47912,-0.06328 0.67348,0.07684c0.19436,0.14238 0.29832,0.38194 0.26894,0.61924zM89.29938,106.87088l-0.58534,-5.18444c-0.02938,-0.2373 0.07458,-0.47686 0.26894,-0.61924c0.19436,-0.1469 0.44974,-0.17402 0.67348,-0.07684l3.35836,1.45544l-0.53788,1.24526l-2.28486,-0.98988l0.452,4.02054z" fill="#895d3d"></path><path d="M92.32552,116.9098c-0.00226,0 -0.00678,0 -0.00904,0c-0.2486,-0.00452 -0.44748,-0.21244 -0.44296,-0.46104l0.37064,-19.54222c0.00452,-0.24634 0.20792,-0.44296 0.452,-0.44296c0.00226,0 0.00678,0 0.00904,0c0.2486,0.00452 0.44748,0.21244 0.44296,0.46104l-0.37064,19.54222c-0.00452,0.2486 -0.20792,0.44296 -0.452,0.44296zM140.64206,116.9098c-0.24408,0 -0.44748,-0.19662 -0.452,-0.44296l-0.3729,-19.54222c-0.00452,-0.2486 0.19436,-0.45652 0.44296,-0.46104c0.28476,-0.0226 0.45652,0.19436 0.46104,0.44296l0.3729,19.54222c0.00452,0.2486 -0.19436,0.45652 -0.44296,0.46104c-0.00226,0 -0.00678,0 -0.00904,0zM116.67024,138.15606c-4.60588,0 -12.34186,-5.90086 -12.68086,-6.16528c-0.24634,-0.18984 -0.2938,-0.54466 -0.10396,-0.79326c0.18758,-0.2486 0.54014,-0.29832 0.79326,-0.10396c0.08136,0.06328 8.30324,6.38224 12.42322,5.90538c4.12902,-0.49268 10.75534,-5.37202 10.82314,-5.42174c0.24634,-0.18306 0.60342,-0.13334 0.791,0.11978c0.18532,0.2486 0.13334,0.60342 -0.11978,0.791c-0.28024,0.20792 -6.93142,5.1076 -11.36102,5.63418c-0.18306,0.0226 -0.37064,0.0339 -0.565,0.0339z" fill="#472b29"></path><path d="M105.4403,154.2789c0.86106,2.3278 -0.42714,5.68164 -0.49042,8.05238c-0.04068,1.55488 0.08362,2.97642 0.31188,4.34372h23.9786c0.84976,-1.3447 1.78088,-2.65098 2.8589,-3.90528c-1.65884,-2.08372 -2.81596,-4.49966 -4.49966,-6.56078c-0.4068,-0.4972 -0.43618,-1.1074 0,-1.59782c0.9492,-1.06898 2.26678,-1.60912 3.5595,-2.14474c1.4238,-0.5876 2.8024,-1.22944 4.24202,-1.76054c-0.90852,-3.76968 -2.7007,-7.18454 -4.94262,-10.33498c-0.29606,-0.4181 -0.2373,-0.82264 -0.0113,-1.12774c-6.5766,4.633 -9.53946,6.42066 -13.93516,6.42066c-4.48158,0 -7.17776,-2.60804 -13.11026,-6.27828c-0.5537,3.43746 -3.6725,8.0795 -1.36052,11.45594c0.9153,1.3334 2.7911,1.79444 3.39904,3.43746z" fill="#fdfcef"></path><path d="M132.34108,166.675l2.61482,-4.55842l-5.95058,-6.8139l9.22984,-3.40582c-3.8872,-12.4865 -9.22984,-14.7578 -9.22984,-14.7578c-1.23622,9.55076 -3.29056,20.16146 -5.3336,29.53594zM97.55064,162.11658l2.57188,4.55842h8.6106c-1.98654,-9.37448 -3.99794,-19.98518 -5.2319,-29.53594c0,0 -5.34038,2.2713 -9.22984,14.7578l9.22984,3.40582z" fill="#568bc1"></path><path d="M115.92896,66.26546l-0.61924,-0.0339c-0.2147,-0.01582 -0.4294,-0.0339 -0.65088,-0.04068c-0.6102,-0.0226 -1.09158,-0.5198 -1.09158,-1.13c0,-0.62376 0.50624,-1.15938 1.13,-1.15938c0.99892,0 1.41702,0.00452 1.57748,0.00904c0.02486,-0.00226 0.2373,-0.00904 0.68252,-0.00904c0.62376,0 1.13,0.50624 1.13,1.13v0.02938c0,0.6102 -0.48138,1.1074 -1.08932,1.13c-0.20566,0.00678 -0.4068,0.0226 -0.60794,0.04068z" fill="#472b29"></path><path d="M161.79114,167.805h-90.67572c-0.30962,0 -0.60568,-0.12656 -0.81586,-0.34804c-0.2147,-0.22374 -0.3277,-0.52206 -0.31188,-0.83168c0.21922,-4.859 0.56726,-8.11566 1.06672,-9.95304c1.4803,-5.46468 3.64538,-7.59812 7.64558,-10.0683c1.49612,-0.92208 3.27926,-1.65884 5.2997,-2.18994l16.00306,-5.80368c1.13678,-0.29832 2.0453,-1.03508 2.17638,-1.71082c0.10848,-0.56726 0.23278,-2.22836 0.34352,-4.60814c-2.31876,-1.64076 -4.2149,-3.12332 -4.77086,-3.66346c-3.53012,-3.45102 -5.5483,-6.59694 -6.35286,-9.90332c-0.24634,-1.01022 -0.35482,-1.36052 -0.86558,-1.74246c-0.47234,-0.35482 -0.94016,-0.61472 -1.38538,-0.8701c-1.08706,-0.61472 -2.21254,-1.25204 -3.03292,-2.77754c-1.89614,-3.53238 -3.27926,-10.21746 -3.27926,-12.3509c0,-0.0791 0.00904,-0.16046 0.02712,-0.2373c0.52884,-2.45436 2.90184,-4.30078 5.76752,-4.49514c0.28928,-0.02034 0.58308,-0.0226 0.89044,-0.0226c0.61246,-0.03164 1.13226,0.01582 1.54584,0.0678c-0.0791,-2.72556 0.08136,-8.49308 0.15368,-11.10112c0.01808,-0.65088 0.03164,-1.08254 0.03164,-1.17746c0,-10.52708 10.55194,-19.12864 24.54134,-20.00778c14.86402,0.86784 25.55608,9.28182 25.55608,20.00778c0,0.09266 0.01356,0.5198 0.03164,1.17068c0.07458,2.66228 0.23956,8.61738 0.14916,11.1079c0.41584,-0.0565 0.94468,-0.113 1.6046,-0.06554c0.2486,0.0113 0.5424,0.00226 0.83394,0.02034c2.86568,0.19436 5.23642,2.04078 5.76752,4.49514c0.01808,0.07684 0.02712,0.1582 0.02712,0.2373c0,2.4634 -1.469,8.97672 -3.27926,12.3509c-0.81812,1.52776 -1.9436,2.16282 -3.03292,2.77754c-0.44522,0.25312 -0.91304,0.51528 -1.38312,0.86784c-0.51302,0.3842 -0.61924,0.73224 -0.85428,1.69048c-0.81586,3.35836 -2.8363,6.50428 -6.3619,9.95304c-0.58308,0.56726 -2.6216,2.22836 -5.06692,3.99568c-0.00678,1.96168 0.16498,3.44876 0.48364,4.12676c0.31866,0.67574 0.93112,1.54358 2.05886,1.8306c0.79778,0.28702 16.94548,6.24664 19.76144,7.43992c0.5085,0.19436 0.96728,0.38194 1.33114,0.53788c0.23278,0.08814 0.47912,0.17854 0.66218,0.23504c4.79572,1.44866 7.29076,4.4296 8.33488,9.96886l0.51076,9.86038c0.01582,0.30962 -0.09492,0.61246 -0.30962,0.8362c-0.22374,0.22148 -0.51754,0.3503 -0.82716,0.3503zM72.30192,165.545h88.2982l-0.4294,-8.52246c-0.87236,-4.56746 -2.77076,-6.87266 -6.75062,-8.07272c-0.226,-0.0678 -0.5198,-0.17628 -0.85654,-0.3051c-0.38872,-0.16498 -0.82038,-0.339 -1.33114,-0.53562c-2.79788,-1.1865 -19.41566,-7.31788 -19.5829,-7.38116c-1.43284,-0.35708 -2.69166,-1.4464 -3.4352,-3.02388c-0.51302,-1.09158 -0.74354,-3.0058 -0.69156,-5.6952c0.00678,-0.35708 0.18306,-0.69156 0.4746,-0.89722c2.73686,-1.94812 4.81154,-3.6612 5.26806,-4.10642c3.2092,-3.13914 5.03302,-5.94154 5.73362,-8.81626c0.26216,-1.07802 0.5198,-2.13118 1.70404,-3.0171c0.55144,-0.41584 1.10062,-0.72772 1.62946,-1.02604c0.95372,-0.54014 1.64528,-0.92886 2.15378,-1.88032c1.70404,-3.1753 2.95834,-9.08972 3.00806,-11.15762c-0.36838,-1.39668 -1.89614,-2.486 -3.68154,-2.60352c-0.23956,-0.01582 -0.4859,-0.01808 -0.73902,-0.01808c-0.7345,-0.0339 -1.23622,0.04746 -1.63624,0.10622c-0.52432,0.08814 -1.1865,0.1921 -1.72212,-0.30058c-0.55144,-0.5085 -0.49946,-1.25204 -0.4746,-1.60686c0.14012,-1.90292 -0.05424,-8.82756 -0.12882,-11.43786c-0.01808,-0.68252 -0.03164,-1.13452 -0.03164,-1.2317c0,-9.48974 -9.79484,-16.95452 -23.29156,-17.75004c-12.64696,0.80004 -22.28586,8.43206 -22.28586,17.75004c0,0.09718 -0.01356,0.55144 -0.03164,1.24074c-0.07232,2.60578 -0.26668,9.52816 -0.13108,11.42656c0.02486,0.35708 0.0791,1.09836 -0.47234,1.60686c-0.53562,0.49494 -1.19554,0.38872 -1.72212,0.30284c-0.40002,-0.06102 -0.88818,-0.14238 -1.57974,-0.10848c-0.30962,0.00226 -0.5537,0.00452 -0.79552,0.02034c-1.7854,0.11978 -3.31316,1.20684 -3.68154,2.60352c0.05424,2.04982 1.39442,8.1473 3.00806,11.15762c0.51076,0.95146 1.20006,1.34018 2.15378,1.88032c0.52658,0.29832 1.07802,0.61246 1.63172,1.0283c1.17972,0.88366 1.43962,1.93682 1.68822,2.95834c0.71416,2.93348 2.53798,5.73588 5.74944,8.87728c0.452,0.43844 2.4408,2.00236 4.99686,3.78776c0.31866,0.22374 0.49946,0.58986 0.48364,0.97858c-0.13108,2.93348 -0.26894,4.80024 -0.41132,5.5483c-0.34578,1.808 -2.1244,3.03292 -3.73126,3.44198l-15.99628,5.80142c-1.90066,0.50624 -3.47588,1.15486 -4.78216,1.95942c-3.62504,2.2374 -5.35168,3.94596 -6.65118,8.7349c-0.40228,1.50742 -0.71642,4.28948 -0.9266,8.2829z" fill="#472b29"></path><g fill="#5e2e2e"><path d="M149.90806,79.26724c-5.10534,0.3729 -8.31228,-5.74492 -11.64126,-10.25814c-8.12018,-11.00168 -22.33332,-14.41654 -34.1599,-8.07724c-3.14818,1.68822 -5.67034,3.4917 -6.39806,5.12794c-5.97996,2.5425 -9.33606,10.31012 -10.65364,17.77942c-1.5368,8.71456 5.84662,22.20224 6.28506,14.69678c0.3164,-5.41722 2.3391,-12.98822 4.38666,-17.69806c0.91982,-2.11536 1.75602,-4.35954 2.35718,-6.6783c0.70512,5.63192 8.06142,10.99038 12.67182,11.0401c0.49268,0.00452 0.71868,-1.93908 0.58534,-4.59006c1.20458,2.16056 2.91766,3.97308 4.82736,5.30874c2.99902,2.09954 6.4523,3.1527 9.89654,3.89172c-1.2204,-0.51076 -1.94134,-2.01592 -2.16508,-3.49848c-0.11752,-0.77066 -0.12656,-1.55036 -0.11526,-2.33458c3.00806,2.08146 6.23534,3.616 9.74738,3.74708c0.40454,0.01582 0.8136,0.00226 1.2204,-0.0226c1.82382,3.76968 2.44984,8.30324 2.63742,11.53278c0.43844,7.50546 6.02742,-5.03076 4.49062,-13.74532c-0.0113,-0.06328 -0.02486,-0.12882 -0.03616,-0.19436c2.30068,-1.44866 4.40022,-3.49848 6.06358,-6.02742zM100.84572,70.15266c0.0113,-0.10396 0.0226,-0.21018 0.0339,-0.31414c0.03842,0.01356 0.07458,0.02712 0.11526,0.03842c-0.0565,0.0904 -0.09944,0.18306 -0.14916,0.27572z"></path></g><g fill="#472b29"><path d="M109.41338,167.24h-9.62308l-2.92896,-5.19574l5.6726,-6.49524l-9.03096,-3.33124l5.42174,-11.9554l1.03056,0.47008l-4.92002,10.84348l9.42872,3.47814l-6.22404,7.13256l2.21254,3.92336h7.59812l-5.21156,-27.57878l1.11192,-0.21244z"></path></g><g fill="#472b29"><path d="M132.58742,167.24h-9.62082l5.46242,-28.92122l1.11192,0.21244l-5.2093,27.57878h7.59586l2.21254,-3.9211l-6.22178,-7.13482l9.42646,-3.47814l-4.91776,-10.84348l1.0283,-0.47008l5.42174,11.9554l-9.03096,3.33124l5.6726,6.4975z"></path></g><g fill="#472b29"><path d="M116.61826,146.61976c-1.61138,0 -3.33576,-0.49268 -5.20026,-1.4803c-2.42272,-1.28142 -8.09984,-5.13924 -8.3394,-5.30422c-0.25764,-0.17628 -0.32544,-0.52658 -0.14916,-0.78648c0.17628,-0.2599 0.52884,-0.32544 0.78648,-0.14916c0.0565,0.04068 5.86696,3.9889 8.23544,5.24094c2.89958,1.5368 5.38106,1.7515 7.58004,0.65314c0.2712,-0.1356 0.61698,-0.02712 0.7571,0.25312c0.14012,0.27798 0.02712,0.61698 -0.25312,0.7571c-1.08706,0.54466 -2.22158,0.81586 -3.41712,0.81586z"></path></g><g fill="#472b29"><path d="M123.4525,144.26258c-0.18984,0 -0.37742,-0.09718 -0.48364,-0.27346c-0.16046,-0.26668 -0.07458,-0.61246 0.1921,-0.77518l4.99008,-3.01258c0.26216,-0.16046 0.61246,-0.07684 0.77518,0.1921c0.16046,0.26668 0.07458,0.61246 -0.1921,0.77518l-4.99008,3.01258c-0.0904,0.05424 -0.1921,0.08136 -0.29154,0.08136z"></path></g></g><g><path d="M136.8656,176.3704c-0.28928,0 -0.57856,-0.11074 -0.80004,-0.32996c-0.4407,-0.4407 -0.4407,-1.15712 0,-1.59782l6.29184,-6.2941c0.4407,-0.4407 1.15712,-0.4407 1.59782,0c0.4407,0.4407 0.4407,1.15712 0,1.59782l-6.29184,6.2941c-0.21922,0.22148 -0.5085,0.32996 -0.79778,0.32996z" fill="#472b29"></path><path d="M110.03714,202.36266l-0.29606,-0.29606c-2.39108,-2.39108 -2.39108,-6.3054 0,-8.69648l18.27888,-18.27888c2.39108,-2.39108 6.3054,-2.39108 8.69648,0l0.29606,0.29606c2.39108,2.39108 2.39108,6.3054 0,8.69648l-18.27888,18.27888c-2.39108,2.39334 -6.3054,2.39334 -8.69648,0z" fill="#88ae45"></path><path d="M114.38538,205.29162c-1.86224,0 -3.72674,-0.70964 -5.14602,-2.12892v0l-0.29606,-0.29606c-2.8363,-2.83856 -2.8363,-7.45574 0,-10.2943l18.27888,-18.27888c2.83404,-2.8363 7.45348,-2.84082 10.29656,0l0.29606,0.29606c1.3673,1.3673 2.12214,3.1979 2.12214,5.14602c0,1.95038 -0.75484,3.77872 -2.1244,5.14828l-18.27662,18.27888c-1.42154,1.41928 -3.28604,2.12892 -5.15054,2.12892zM110.83492,201.56488c1.9549,1.95716 5.14376,1.95264 7.10092,0l18.27662,-18.27888c0.94468,-0.94242 1.46222,-2.2035 1.46222,-3.55046c0,-1.3447 -0.51754,-2.60578 -1.46222,-3.5482l-0.29606,-0.29606c-1.95716,-1.95716 -5.13924,-1.95716 -7.09866,0l-18.27888,18.27888c-1.9549,1.95716 -1.9549,5.1415 0,7.09866z" fill="#472b29"></path><path d="M136.19664,175.8845c-2.08598,-2.08598 -5.36524,-2.22384 -7.28398,-0.3051l-0.34804,0.34804l0.75936,0.75936l6.82972,6.82972l0.34804,-0.34804c1.91874,-1.91874 1.78088,-5.19574 -0.3051,-7.28398z" fill="#d1dc82"></path><path d="M136.16274,185.27932c-0.21696,0 -0.43392,-0.08362 -0.60116,-0.2486l-8.0908,-8.09306c-0.32996,-0.32996 -0.32996,-0.86784 0,-1.1978c0.32996,-0.32996 0.8701,-0.32996 1.20006,0l8.0908,8.09306c0.32996,0.32996 0.32996,0.86784 0,1.1978c-0.16272,0.16498 -0.38194,0.2486 -0.5989,0.2486z" fill="#472b29"></path><path d="M162.99572,126.8538c-12.29067,0 -22.25422,9.96355 -22.25422,22.25422c0,12.29067 9.96355,22.25422 22.25422,22.25422c12.29067,0 22.25422,-9.96355 22.25422,-22.25422c0,-12.29067 -9.96355,-22.25422 -22.25422,-22.25422z" fill="#77cbd2" opacity="0.74"></path><path d="M182.721,129.38274c-10.92484,-10.92484 -28.63872,-10.92484 -39.56356,0c-10.92484,10.92484 -10.92484,28.63872 0,39.56356c10.92484,10.92484 28.63872,10.92484 39.56356,0c10.9271,-10.92484 10.9271,-28.63872 0,-39.56356zM178.6756,164.9009c-8.6897,8.6897 -22.7808,8.6897 -31.4705,0c-8.6897,-8.6897 -8.6897,-22.7808 0,-31.4705c8.6897,-8.6897 22.7808,-8.6897 31.4705,0c8.6897,8.6897 8.6897,22.7808 0,31.4705z" fill="#fdfcef"></path><path d="M162.93922,178.25524c-7.45348,0 -14.90696,-2.8363 -20.57956,-8.51116c-11.34746,-11.34746 -11.34746,-29.81166 0,-41.16138c11.34972,-11.34972 29.81392,-11.3452 41.16138,0c11.34746,11.34746 11.34746,29.81166 0,41.16138c-5.67486,5.67486 -13.12834,8.51116 -20.58182,8.51116zM162.93922,122.3338c-6.87492,0 -13.74758,2.61482 -18.98174,7.84898c-10.46832,10.46606 -10.46832,27.49742 0,37.96574c10.47058,10.46606 27.49968,10.46154 37.96574,0c10.46832,-10.46606 10.46832,-27.49742 0,-37.96574c-5.23416,-5.2319 -12.10908,-7.84898 -18.984,-7.84898zM162.93922,172.54874c-6.24664,0 -12.11586,-2.43176 -16.5319,-6.8478c-4.41604,-4.41604 -6.8478,-10.28752 -6.8478,-16.53416c0,-6.24664 2.43176,-12.11812 6.8478,-16.53416c4.41604,-4.4183 10.28752,-6.85006 16.5319,-6.85006c6.24438,0 12.11812,2.43176 16.53416,6.85006c4.41604,4.41604 6.85006,10.28752 6.85006,16.53416c0,6.24664 -2.43402,12.11812 -6.85006,16.53416c-4.41604,4.41604 -10.28752,6.8478 -16.53416,6.8478zM162.93922,128.04256c-5.64096,0 -10.94744,2.19672 -14.93408,6.18788c-3.99116,3.9889 -6.18562,9.29312 -6.18562,14.93634c0,5.64322 2.19672,10.94744 6.18562,14.93634c3.9889,3.9889 9.29312,6.18562 14.93408,6.18562c5.64322,0 10.94744,-2.19672 14.93634,-6.18562c3.9889,-3.9889 6.18788,-9.29312 6.18788,-14.93634c0,-5.64322 -2.19898,-10.94744 -6.18788,-14.93634c-3.9889,-3.99116 -9.29312,-6.18788 -14.93634,-6.18788zM112.97966,204.2701c-0.11978,0 -0.23052,-0.07684 -0.26894,-0.19662l-3.11202,-9.6728c-0.04746,-0.1469 0.03616,-0.30736 0.18306,-0.35482c0.1469,-0.0452 0.30736,0.0339 0.35482,0.18306l3.11202,9.6728c0.04746,0.1469 -0.03616,0.30736 -0.18306,0.35482c-0.02938,0.00904 -0.05876,0.01356 -0.08588,0.01356zM114.95264,203.59888c-0.12204,0 -0.23504,-0.0791 -0.2712,-0.20114l-3.53012,-11.8537c-0.0452,-0.14916 0.04294,-0.30736 0.18984,-0.3503c0.16046,-0.04746 0.30962,0.04294 0.35256,0.18984l3.53012,11.8537c0.0452,0.14916 -0.04294,0.30736 -0.18984,0.3503c-0.02938,0.00904 -0.0565,0.0113 -0.08136,0.0113z" fill="#472b29"></path><g fill="#472b29"><path d="M116.13914,199.4337c-0.12204,0 -0.23504,-0.0791 -0.2712,-0.20114l-2.95382,-9.91914c-0.0452,-0.14916 0.04294,-0.30736 0.18984,-0.3503c0.16498,-0.0452 0.30962,0.04294 0.35256,0.18984l2.95382,9.91914c0.0452,0.14916 -0.04294,0.30736 -0.18984,0.3503c-0.02712,0.00904 -0.05424,0.0113 -0.08136,0.0113z"></path></g><g fill="#472b29"><path d="M117.34146,195.08546c-0.12204,0 -0.23504,-0.0791 -0.2712,-0.20114l-2.08146,-6.99244c-0.0452,-0.14916 0.04294,-0.30736 0.18984,-0.3503c0.16046,-0.04746 0.30962,0.04294 0.35256,0.18984l2.08146,6.99244c0.0452,0.14916 -0.04294,0.30736 -0.18984,0.3503c-0.02712,0.00678 -0.05424,0.0113 -0.08136,0.0113z"></path></g></g></g></g></svg>